<svg viewBox="0 0 1223 918" fill="none" xmlns="http://www.w3.org/2000/svg">
<path d="M270.971 743.737L125.358 586.077C121.935 582.374 119.791 577.67 119.24 572.658C118.69 567.645 119.762 562.588 122.3 558.231L310.237 235.664C312.761 231.335 316.273 227.664 320.487 224.952C324.701 222.239 329.497 220.561 334.483 220.056L764.505 176.487C768.923 176.04 773.387 176.525 777.606 177.91C781.826 179.295 785.709 181.55 789.003 184.528L1077.48 445.18C1080.99 448.35 1083.46 452.503 1084.58 457.099C1085.7 461.695 1085.4 466.52 1083.74 470.947L981.075 743.737H270.971Z" fill="#141B23"/>
<path d="M560.287 422.562C560.287 422.562 567.373 423.533 599.912 422.861C608.718 428.211 646.876 424.81 661.919 423.388C679.308 426.614 687.907 418.19 680.179 413.642C677.802 412.236 673.866 411.204 668.156 410.99C668.53 392.889 623.761 386.95 611.286 413.359C604.69 408.009 590.916 408.506 590.006 415.744C577.272 413.405 567.213 416.042 562.603 418.802C560.157 420.254 559.248 421.745 560.287 422.562Z" fill="#1F2A37"/>
<path opacity="0.08" d="M560.288 422.562C560.288 422.562 567.374 423.532 599.913 422.86C608.719 428.21 646.876 424.809 661.919 423.387C679.309 426.613 687.908 418.19 680.18 413.641C680.241 414.774 679.857 415.885 679.11 416.737C677.344 418.755 674.019 419.596 670.985 419.336C668.031 418.981 665.182 418.024 662.615 416.523C661.429 415.754 660.101 415.234 658.709 414.994C656.133 414.742 653.908 416.37 652.097 417.876C650.568 415.461 646.815 414.154 643.635 414.949C640.455 415.743 638.285 418.564 638.705 421.239C632.475 420.123 626.123 423.104 619.779 422.63C612.54 422.08 606.02 417.119 598.912 418.381C597.115 418.694 595.457 419.405 593.653 419.703C591.862 419.912 590.056 419.961 588.256 419.848C582.455 419.741 576.653 420.483 570.867 420.192C568.058 420.077 565.275 419.612 562.581 418.809C560.158 420.253 559.248 421.744 560.288 422.562Z" fill="#21252B"/>
<path d="M315.258 691.331H476.74V376.202H315.258V691.331Z" fill="#314257"/>
<path d="M344.617 691.331H476.739V376.202H344.617V691.331Z" fill="#293A4E"/>
<path d="M313.363 381.347H480.211V376.202H313.363V381.347Z" fill="#36485C"/>
<path d="M313.363 371.057H480.211V365.913H313.363V371.057Z" fill="#36485C"/>
<path d="M316.879 376.202H476.748V371.058H316.879V376.202Z" fill="#293A4E"/>
<path d="M439.393 419.573H464.204V394.761H439.393V419.573Z" fill="#314257"/>
<path d="M439.393 419.573H462.018V394.761H439.393V419.573Z" fill="#202A36"/>
<path d="M401.801 419.573H426.62V394.761H401.801V419.573Z" fill="#314257"/>
<path d="M401.809 419.573H424.435V394.761H401.809V419.573Z" fill="#202A36"/>
<path d="M364.225 419.573H389.044V394.761H364.225V419.573Z" fill="#314257"/>
<path d="M364.232 419.573H386.858V394.761H364.232V419.573Z" fill="#202A36"/>
<path d="M439.393 456.111H464.204V431.299H439.393V456.111Z" fill="#314257"/>
<path d="M439.393 456.111H462.018V431.299H439.393V456.111Z" fill="#202A36"/>
<path d="M401.801 456.111H426.62V431.299H401.801V456.111Z" fill="#314257"/>
<path d="M401.809 456.111H424.435V431.299H401.809V456.111Z" fill="#202A36"/>
<path d="M364.225 456.111H389.044V431.299H364.225V456.111Z" fill="#314257"/>
<path d="M364.232 456.111H386.858V431.299H364.232V456.111Z" fill="#202A36"/>
<path d="M439.393 523.031H464.204V498.212H439.393V523.031Z" fill="#314257"/>
<path d="M439.393 523.031H462.018V498.212H439.393V523.031Z" fill="#202A36"/>
<path d="M401.801 523.031H426.62V498.212H401.801V523.031Z" fill="#314257"/>
<path d="M401.809 523.031H424.435V498.212H401.809V523.031Z" fill="#202A36"/>
<path d="M364.225 523.031H389.044V498.212H364.225V523.031Z" fill="#314257"/>
<path d="M364.232 523.031H386.858V498.212H364.232V523.031Z" fill="#202A36"/>
<path d="M439.393 559.569H464.204V534.75H439.393V559.569Z" fill="#314257"/>
<path d="M439.393 559.569H462.018V534.75H439.393V559.569Z" fill="#202A36"/>
<path d="M401.801 559.569H426.62V534.75H401.801V559.569Z" fill="#314257"/>
<path d="M401.809 559.569H424.435V534.75H401.809V559.569Z" fill="#202A36"/>
<path d="M364.225 559.569H389.044V534.75H364.225V559.569Z" fill="#E6E6E6"/>
<path d="M364.232 559.569H386.858V534.75H364.232V559.569Z" fill="#F5F5F5"/>
<path d="M439.393 633.934H464.204V609.115H439.393V633.934Z" fill="#E6E6E6"/>
<path d="M439.393 633.934H462.018V609.115H439.393V633.934Z" fill="#F5F5F5"/>
<path d="M401.801 633.934H426.62V609.115H401.801V633.934Z" fill="#E6E6E6"/>
<path d="M401.809 633.934H424.435V609.115H401.809V633.934Z" fill="#F5F5F5"/>
<path d="M364.225 633.934H389.044V609.115H364.225V633.934Z" fill="#E6E6E6"/>
<path d="M364.232 633.934H386.858V609.115H364.232V633.934Z" fill="#F5F5F5"/>
<path d="M439.393 670.479H464.204V645.66H439.393V670.479Z" fill="#E6E6E6"/>
<path d="M439.393 670.479H462.018V645.66H439.393V670.479Z" fill="#F5F5F5"/>
<path d="M401.801 670.479H426.62V645.66H401.801V670.479Z" fill="#E6E6E6"/>
<path d="M401.809 670.479H424.435V645.66H401.809V670.479Z" fill="#F5F5F5"/>
<path d="M364.225 670.479H389.044V645.66H364.225V670.479Z" fill="#E6E6E6"/>
<path d="M364.232 670.479H386.858V645.66H364.232V670.479Z" fill="#F5F5F5"/>
<path d="M315.258 475.853H476.74V473.56H315.258V475.853Z" fill="#36485C"/>
<path d="M315.258 590.235H476.74V587.942H315.258V590.235Z" fill="#E0E0E0"/>
<path d="M776.337 468.57H664.654V740.335H776.337V468.57Z" fill="#293A4E"/>
<path d="M744.531 468.57H664.654V740.335H744.531V468.57Z" fill="#36485C"/>
<path d="M702.613 490.905H672.887V505.336H702.613V490.905Z" fill="#202A36"/>
<path d="M702.614 490.905H674.867V505.336H702.614V490.905Z" fill="#293A4E"/>
<path d="M736.994 490.905H707.268V505.336H736.994V490.905Z" fill="#E6E6E6"/>
<path d="M736.995 490.905H709.248V505.336H736.995V490.905Z" fill="#293A4E"/>
<path d="M702.613 518.063H672.887V532.494H702.613V518.063Z" fill="#202A36"/>
<path d="M702.614 518.063H674.867V532.494H702.614V518.063Z" fill="#293A4E"/>
<path d="M736.994 518.063H707.268V532.494H736.994V518.063Z" fill="#E6E6E6"/>
<path d="M736.995 518.063H709.248V532.494H736.995V518.063Z" fill="#293A4E"/>
<path d="M702.613 552.781H672.887V567.212H702.613V552.781Z" fill="#202A36"/>
<path d="M702.614 552.781H674.867V567.212H702.614V552.781Z" fill="#293A4E"/>
<path d="M736.994 552.781H707.268V567.212H736.994V552.781Z" fill="#E6E6E6"/>
<path d="M736.995 552.781H709.248V567.212H736.995V552.781Z" fill="#293A4E"/>
<path d="M702.613 572.723H672.887V587.155H702.613V572.723Z" fill="#202A36"/>
<path d="M702.614 572.723H674.867V587.155H702.614V572.723Z" fill="#293A4E"/>
<path d="M736.994 572.723H707.268V587.155H736.994V572.723Z" fill="#E6E6E6"/>
<path d="M736.995 572.723H709.248V587.155H736.995V572.723Z" fill="#293A4E"/>
<path d="M702.613 605.493H672.887V619.924H702.613V605.493Z" fill="#202A36"/>
<path d="M702.614 605.493H674.867V619.924H702.614V605.493Z" fill="#293A4E"/>
<path d="M736.994 605.493H707.268V619.924H736.994V605.493Z" fill="#E6E6E6"/>
<path d="M736.995 605.493H709.248V619.924H736.995V605.493Z" fill="#293A4E"/>
<path d="M702.613 625.442H672.887V639.874H702.613V625.442Z" fill="#202A36"/>
<path d="M702.614 625.442H674.867V639.874H702.614V625.442Z" fill="#293A4E"/>
<path d="M736.994 625.442H707.268V639.874H736.994V625.442Z" fill="#E6E6E6"/>
<path d="M736.995 625.442H709.248V639.874H736.995V625.442Z" fill="#293A4E"/>
<path d="M702.613 661.101H672.887V675.532H702.613V661.101Z" fill="#E6E6E6"/>
<path d="M702.614 661.101H674.867V675.532H702.614V661.101Z" fill="#F5F5F5"/>
<path d="M736.994 661.101H707.268V675.532H736.994V661.101Z" fill="#E6E6E6"/>
<path d="M736.995 661.101H709.248V675.532H736.995V661.101Z" fill="#293A4E"/>
<path d="M702.613 687.441H672.887V701.872H702.613V687.441Z" fill="#E6E6E6"/>
<path d="M702.614 687.441H674.867V701.872H702.614V687.441Z" fill="#F5F5F5"/>
<path d="M736.994 687.441H707.268V701.872H736.994V687.441Z" fill="#E6E6E6"/>
<path d="M736.995 687.441H709.248V701.872H736.995V687.441Z" fill="#F5F5F5"/>
<path opacity="0.05" d="M776.337 541.391H664.654V543.875H776.337V541.391Z" fill="black"/>
<path opacity="0.05" d="M776.337 595.081H664.654V597.566H776.337V595.081Z" fill="black"/>
<path opacity="0.05" d="M776.337 649.246H664.654V651.73H776.337V649.246Z" fill="black"/>
<path d="M776.338 460.528H659.396V469.212H776.338V460.528Z" fill="#293A4E"/>
<path opacity="0.05" d="M776.338 460.528H749.615V469.212H776.338V460.528Z" fill="black"/>
<path d="M946.739 387.293V685.117L931.628 728.136H815.596V387.293H946.739Z" fill="#293A4E"/>
<path d="M898.194 387.293H767.043V728.144H898.194V387.293Z" fill="#314257"/>
<path d="M886.752 410.43H778.486V427.789H886.752V410.43Z" fill="#202A36"/>
<path d="M886.751 410.43H782.689V427.789H886.751V410.43Z" fill="#293A4E"/>
<path d="M886.752 439.653H778.486V457.012H886.752V439.653Z" fill="#202A36"/>
<path d="M886.751 439.653H782.689V457.012H886.751V439.653Z" fill="#293A4E"/>
<path d="M886.752 470.029H778.486V487.388H886.752V470.029Z" fill="#202A36"/>
<path d="M886.751 470.029H782.689V487.388H886.751V470.029Z" fill="#293A4E"/>
<path d="M886.752 500.398H778.486V517.757H886.752V500.398Z" fill="#202A36"/>
<path d="M886.751 500.398H782.689V517.757H886.751V500.398Z" fill="#293A4E"/>
<path d="M886.752 530.775H778.486V548.134H886.752V530.775Z" fill="#202A36"/>
<path d="M886.751 530.775H782.689V548.134H886.751V530.775Z" fill="#293A4E"/>
<path d="M886.752 561.142H778.486V578.501H886.752V561.142Z" fill="#202A36"/>
<path d="M886.751 561.142H782.689V578.501H886.751V561.142Z" fill="#293A4E"/>
<path d="M886.752 594.615H778.486V611.974H886.752V594.615Z" fill="#202A36"/>
<path d="M886.751 594.615H782.689V611.974H886.751V594.615Z" fill="#293A4E"/>
<path d="M886.752 628.095H778.486V645.454H886.752V628.095Z" fill="#202A36"/>
<path d="M886.751 628.095H782.689V645.454H886.751V628.095Z" fill="#293A4E"/>
<path d="M886.752 661.567H778.486V678.926H886.752V661.567Z" fill="#E6E6E6"/>
<path d="M886.751 661.567H782.689V678.926H886.751V661.567Z" fill="#F5F5F5"/>
<path d="M886.752 695.038H778.486V712.397H886.752V695.038Z" fill="#E6E6E6"/>
<path d="M886.751 695.038H782.689V712.397H886.751V695.038Z" fill="#F5F5F5"/>
<path d="M950.149 383.861H763.336V392.177H950.149V383.861Z" fill="#36485C"/>
<path d="M950.149 368.858H763.336V377.174H950.149V368.858Z" fill="#36485C"/>
<path d="M943.942 375.546H767.043V383.862H943.942V375.546Z" fill="#293A4E"/>
<path d="M946.74 410.423H910.195V427.789H946.74V410.423Z" fill="#314257"/>
<path d="M946.74 439.004H910.195V456.37H946.74V439.004Z" fill="#314257"/>
<path d="M946.74 467.584H910.195V484.951H946.74V467.584Z" fill="#314257"/>
<path d="M946.74 500.398H910.195V517.765H946.74V500.398Z" fill="#314257"/>
<path d="M946.74 530.767H910.195V548.134H946.74V530.767Z" fill="#314257"/>
<path d="M946.74 561.142H910.195V578.509H946.74V561.142Z" fill="#E0E0E0"/>
<path d="M946.74 594.615H910.195V611.981H946.74V594.615Z" fill="#E0E0E0"/>
<path d="M946.74 628.086H910.195V645.453H946.74V628.086Z" fill="#E0E0E0"/>
<path d="M946.74 661.559H910.195V678.925H946.74V661.559Z" fill="#E0E0E0"/>
<path d="M1075.93 443.284L1075.01 442.451C1059.58 451.723 1053.01 467.859 1053.01 467.859C1045.96 459.519 1032.24 445.508 1022.52 449.514C1008.92 455.17 1028.5 475.449 1028.5 475.449C981.955 490.782 989.919 523.796 989.919 523.796C985.226 519.339 979.623 516.465 973.103 517.107C950.004 519.401 966.224 549.418 966.224 549.418C880.728 540.023 875.424 595.739 875.424 595.739C875.424 595.739 865.624 560.325 853.738 562.427C841.852 564.529 848.311 602.549 848.311 602.549C848.311 602.549 840.599 579.733 826.198 584.258C811.797 588.783 826.198 622.301 826.198 622.301C784.157 623.982 791.962 647.525 791.962 647.525C783.546 643.608 774.373 641.607 765.094 641.662C733.655 641.54 727.38 659.839 726.302 664.38L725.583 663.715C721.226 652.692 696.629 640.783 679.812 639.4C675.115 639.015 670.398 638.892 665.687 639.033C661.406 638.892 657.119 639.015 652.853 639.4C647.055 640.066 641.388 641.588 636.037 643.917C626.072 647.027 616.625 651.602 608.007 657.492C604.185 650.552 595.425 641.578 575.399 641.662C566.912 641.623 558.542 643.634 551 647.525C551 647.525 558.109 623.952 519.905 622.301C519.905 622.301 532.984 588.783 519.905 584.258C506.827 579.733 499.902 602.587 499.902 602.587C499.902 602.587 505.78 564.567 494.979 562.465C484.178 560.363 475.281 595.777 475.281 595.777C475.281 595.777 470.465 540.062 392.805 549.456C392.805 549.456 407.557 519.423 386.583 517.146C380.682 516.504 375.599 519.378 371.334 523.834C371.334 523.834 378.572 490.821 336.295 475.487C336.295 475.487 354.074 455.208 341.722 449.552C332.901 445.508 320.434 459.489 314.028 467.897C314.028 467.897 303.855 445.142 281.711 437.1C206.382 409.705 210.968 526.654 210.968 526.654C136.059 518.246 115.979 570.797 123.829 583.983L196.445 662.79L269.442 741.826H979.547L1082.19 469.051C1083.85 464.624 1084.14 459.798 1083.03 455.203C1081.91 450.608 1079.44 446.454 1075.93 443.284Z" fill="#232D39"/>
<path d="M1051.73 549.975C1038.3 556.954 1035.25 567.281 1035.25 567.281C1026.85 568.053 1018.8 571.132 1012.03 576.178C993.855 590.021 1006.68 608.198 1006.68 608.198C1001 603.742 991.623 600.019 978.4 606.295C962.577 613.785 966.827 632.092 966.827 632.092C903.499 616.965 890.68 665.083 890.68 665.083C863.812 669.027 870.715 684.1 870.715 684.1C795.141 676.648 799.139 721.975 799.139 721.975C797.992 715.86 793.987 709.745 787.306 709.554C774.059 709.18 777.652 723.313 777.652 723.313C777.652 723.313 758.718 701.543 743.737 708.415C730.23 714.614 735.413 737.461 736.536 741.826H979.546L1051.73 549.975Z" fill="#304259"/>
<path d="M269.442 741.826H620.542C630.9 699.021 597.183 701.314 579.343 723.672C584.235 709.095 562.037 702.377 557.848 722.357C557.848 722.357 561.846 677.03 486.272 684.483C486.272 684.483 490.729 648.19 452.51 666.535C452.51 666.535 452.51 625.259 395.946 649.719C402.061 630.25 350.412 616.361 330.974 631.374C342.792 615.704 347.791 569.459 296.577 587.04C296.577 587.04 289.002 567.044 273.646 562.58C259.123 558.353 237.224 569.291 221.669 580.925C198.5 546.123 156.33 566.99 150.582 590.098C145.537 596.511 146.714 601.273 146.324 608.55L269.442 741.826Z" fill="#304259"/>
<path d="M511.092 590.419C508.363 635.601 512.07 683.421 509.754 728.657L525.89 730.743L526.532 721.524L526.654 721.57C529.712 678.765 537.86 632.803 541.85 589.891L511.092 590.419Z" fill="#FC9D9D"/>
<path d="M527.77 708.11H510.419C510.304 714.989 510.106 721.869 509.754 728.656L517.268 729.627L526.02 728.863L526.532 721.502L526.654 721.548C526.975 717.099 527.365 712.612 527.785 708.102L527.77 708.11Z" fill="white"/>
<path d="M509.425 722.611L509.371 724.2C509.358 725.553 509.115 726.895 508.653 728.168L506.673 733.725C506.127 735.298 505.848 736.951 505.848 738.617V738.892C505.857 739.163 505.919 739.431 506.033 739.678C506.146 739.925 506.307 740.147 506.507 740.331C506.707 740.515 506.941 740.658 507.197 740.751C507.453 740.844 507.724 740.884 507.996 740.871H527.747C528.293 740.887 528.824 740.69 529.225 740.32C529.627 739.95 529.867 739.437 529.895 738.892V738.181C529.895 736.741 529.671 735.309 529.23 733.939L527.525 728.275C527.152 727.119 526.966 725.911 526.975 724.697V722.611C526.965 721.297 526.454 720.036 525.546 719.087L525.27 718.758C523.457 716.911 520.987 715.858 518.399 715.826C515.811 715.795 513.316 716.788 511.458 718.59L510.969 719.087C510.049 720.038 509.501 721.288 509.425 722.611Z" fill="#10AAFF"/>
<path opacity="0.6" d="M505.848 737.354H529.841C529.886 737.627 529.904 737.904 529.895 738.18V738.891C529.886 739.163 529.824 739.43 529.711 739.677C529.597 739.924 529.436 740.146 529.236 740.331C529.036 740.515 528.801 740.658 528.546 740.75C528.29 740.843 528.019 740.884 527.747 740.87H507.996C507.45 740.887 506.919 740.689 506.517 740.319C506.116 739.949 505.876 739.436 505.848 738.891V737.362V737.354Z" fill="black"/>
<path d="M522.466 723.489C522.515 723.369 522.519 723.237 522.479 723.115C522.438 722.993 522.355 722.889 522.244 722.824C520.968 722.199 519.567 721.874 518.147 721.874C516.727 721.874 515.326 722.199 514.05 722.824C513.991 722.852 513.938 722.892 513.895 722.941C513.852 722.99 513.819 723.048 513.798 723.109C513.778 723.171 513.77 723.237 513.775 723.302C513.78 723.367 513.798 723.431 513.828 723.489C513.856 723.547 513.895 723.599 513.944 723.643C513.992 723.686 514.048 723.719 514.11 723.739C514.171 723.76 514.236 723.768 514.301 723.763C514.365 723.758 514.428 723.74 514.486 723.71C515.62 723.171 516.86 722.891 518.116 722.891C519.372 722.891 520.613 723.171 521.747 723.71C521.813 723.752 521.891 723.771 521.969 723.764C522.068 723.764 522.165 723.739 522.252 723.69C522.34 723.642 522.413 723.573 522.466 723.489Z" fill="white"/>
<path d="M522.466 726.019C522.515 725.901 522.519 725.769 522.478 725.649C522.437 725.528 522.354 725.426 522.244 725.362C520.97 724.734 519.568 724.406 518.147 724.406C516.726 724.406 515.324 724.734 514.05 725.362C513.934 725.419 513.844 725.521 513.803 725.645C513.762 725.768 513.77 725.902 513.828 726.019C513.886 726.135 513.988 726.224 514.111 726.266C514.234 726.307 514.369 726.298 514.486 726.241C515.619 725.698 516.86 725.416 518.116 725.416C519.373 725.416 520.614 725.698 521.747 726.241C521.813 726.282 521.891 726.301 521.969 726.295C522.068 726.294 522.166 726.269 522.252 726.22C522.34 726.172 522.413 726.103 522.466 726.019Z" fill="white"/>
<path d="M522.466 728.496C522.515 728.377 522.519 728.245 522.479 728.122C522.438 728 522.355 727.897 522.244 727.831C520.968 727.206 519.567 726.882 518.147 726.882C516.727 726.882 515.326 727.206 514.05 727.831C513.991 727.859 513.938 727.899 513.895 727.948C513.852 727.998 513.819 728.055 513.798 728.117C513.778 728.179 513.77 728.244 513.775 728.309C513.78 728.374 513.798 728.438 513.828 728.496C513.856 728.554 513.895 728.607 513.944 728.65C513.992 728.693 514.048 728.726 514.11 728.747C514.171 728.767 514.236 728.775 514.301 728.77C514.365 728.765 514.428 728.747 514.486 728.718C515.62 728.178 516.86 727.898 518.116 727.898C519.372 727.898 520.613 728.178 521.747 728.718C521.813 728.76 521.891 728.778 521.969 728.771C522.068 728.771 522.165 728.745 522.252 728.697C522.34 728.65 522.413 728.58 522.466 728.496Z" fill="white"/>
<path d="M603.856 730.269L590.862 720.508C589.824 719.705 588.968 718.691 588.351 717.533C587.734 716.375 587.371 715.098 587.285 713.789L589.333 622.201C589.333 621.704 589.333 621.215 589.288 620.718L586.994 589.715L554.891 593.308L560.815 628.928V629.692C560.109 644.774 561.213 659.886 564.101 674.706L564.591 677.244C566.28 686.103 568.252 697.943 569.574 708.851L571.279 729.451L603.856 730.269Z" fill="#FC9D9D"/>
<path d="M569.619 708.829L571.324 729.429L603.855 730.27L590.861 720.509C589.823 719.706 588.967 718.692 588.35 717.534C587.733 716.375 587.37 715.099 587.284 713.79L587.719 708.11L569.611 708.829" fill="white"/>
<path opacity="0.15" d="M572.516 717.748C572.829 721.394 577.935 723.725 581.367 725.101L586.275 727.05L571.331 728.686L569.802 710.525C568.488 699.158 566.401 686.546 564.62 677.221L564.131 674.683C561.242 659.863 560.138 644.751 560.844 629.669V628.905L557.229 603.856L563.344 603.092L566.401 628.316C566.401 628.316 564.108 657.362 569.061 680.011C569.061 680.011 571.048 698.356 572.119 710.525C572.287 712.481 572.424 714.278 572.531 715.807L572.516 717.748Z" fill="black"/>
<path d="M571.073 721.875L578.358 724.168C578.879 724.331 579.434 724.358 579.969 724.247C580.504 724.136 581.001 723.89 581.416 723.534L587.171 718.626C587.799 718.087 588.595 717.782 589.422 717.763C590.249 717.743 591.058 718.01 591.711 718.519L604.705 728.601L614.949 731.98C616.419 732.478 617.697 733.422 618.606 734.682C619.514 735.941 620.007 737.452 620.017 739.005C620.014 739.438 619.841 739.853 619.535 740.159C619.228 740.466 618.813 740.639 618.38 740.64H572.976C572.462 740.643 571.953 740.543 571.478 740.347C571.003 740.152 570.571 739.864 570.208 739.501C569.844 739.138 569.556 738.707 569.359 738.232C569.163 737.758 569.062 737.249 569.063 736.734V723.358C569.068 723.117 569.128 722.879 569.238 722.665C569.349 722.45 569.508 722.265 569.702 722.121C569.896 721.978 570.121 721.881 570.359 721.838C570.597 721.795 570.841 721.808 571.073 721.875Z" fill="#10AAFF"/>
<path opacity="0.6" d="M569.115 737.348H619.801C619.954 737.879 620.026 738.43 620.015 738.983C620.013 739.416 619.84 739.831 619.533 740.138C619.227 740.444 618.813 740.617 618.379 740.619H572.975C572.049 740.617 571.153 740.288 570.447 739.689C569.74 739.09 569.269 738.261 569.115 737.348Z" fill="black"/>
<path d="M591.765 723.725L594.517 720.767C594.59 720.688 594.631 720.584 594.631 720.477C594.631 720.369 594.59 720.265 594.517 720.186C594.44 720.109 594.335 720.066 594.226 720.066C594.118 720.066 594.013 720.109 593.936 720.186L591.184 723.145C591.112 723.223 591.07 723.327 591.07 723.435C591.07 723.542 591.112 723.646 591.184 723.725C591.258 723.793 591.352 723.83 591.452 723.832C591.563 723.823 591.671 723.786 591.765 723.725Z" fill="white"/>
<path d="M593.919 725.391L596.663 722.433C596.739 722.356 596.783 722.252 596.783 722.142C596.783 722.034 596.739 721.93 596.663 721.852C596.584 721.779 596.48 721.739 596.373 721.739C596.265 721.739 596.162 721.779 596.082 721.852L593.338 724.81C593.262 724.887 593.219 724.992 593.219 725.1C593.219 725.21 593.262 725.314 593.338 725.391C593.408 725.458 593.502 725.496 593.598 725.498C593.712 725.487 593.822 725.451 593.919 725.391Z" fill="white"/>
<path d="M596.097 727.104L598.841 724.146C598.917 724.068 598.96 723.964 598.96 723.856C598.96 723.746 598.917 723.642 598.841 723.565C598.761 723.492 598.658 723.451 598.55 723.451C598.443 723.451 598.339 723.492 598.26 723.565L595.516 726.523C595.439 726.6 595.396 726.704 595.396 726.814C595.396 726.922 595.439 727.026 595.516 727.104C595.587 727.169 595.679 727.207 595.776 727.211C595.893 727.218 596.007 727.18 596.097 727.104Z" fill="white"/>
<path d="M543.143 605.385L508.287 605.332L510.297 558.957C510.502 554.244 510.352 549.522 509.846 544.831C508.83 535.315 509.082 526.654 509.61 516.32L510.603 511.367L579.657 518.736L589.097 600.394L554.417 603.986L547.293 557.229L543.143 605.385Z" fill="#314257"/>
<g opacity="0.3">
<path opacity="0.3" d="M548.057 558L547.293 557.985L547.675 523.68H551.444V544.502L549.166 548.996L548.478 548.645L550.679 544.318V524.444H548.44L548.057 558Z" fill="black"/>
</g>
<path opacity="0.3" d="M514.538 605.385L516.266 572.823C516.529 568.177 516.529 563.519 516.266 558.873C515.562 547.102 515.968 535.291 517.481 523.597L509.073 517.482V528.183C508.729 533.343 509.211 536.882 509.493 542.049C510.44 550.338 510.695 558.69 510.258 567.021L508.309 605.385H514.538Z" fill="black"/>
<g opacity="0.3">
<path opacity="0.3" d="M579.465 536.492C572.211 529.842 570.193 520.44 570.17 520.387L570.934 520.234C570.934 520.325 572.929 529.406 580 535.926L579.465 536.492Z" fill="black"/>
</g>
<path opacity="0.3" d="M554.417 603.986L559.439 603.221L552.644 562.289C551.772 556.067 547.293 557.993 547.293 557.993L554.417 603.986Z" fill="black"/>
<path d="M499.016 462.11L499.78 454.833L506.139 478.246L508.432 524.062L528.879 525.446C546.559 526.748 564.318 524.427 581.07 518.628C579.633 487.739 574.191 446.432 574.191 446.432L572.289 433.706L596.749 421.476L586.812 398.391L575.835 400.899C570.745 401.541 558.583 403.864 558.583 403.864L538.357 404.759L512.934 403.612L485.799 413.312C476.894 417.761 476.895 430.488 476.895 430.488L474.471 459.534L499.016 462.11Z" fill="#10AAFF"/>
<path d="M499.488 541.559L496.843 497.607L496.728 497.661L495.864 483.971L497.485 462.11L476.006 459.603L475.7 482.396C475.576 483.934 475.695 485.482 476.052 486.983L479.331 506.153L489.268 544.372L499.488 541.559Z" fill="#FC9D9D"/>
<path d="M623.035 396.146C613.908 382.127 572.349 361.657 572.349 361.657L564.109 368.43L596.771 396.146L586.834 398.439L596.771 421.523L616.316 411.77C627.193 406.343 623.035 396.146 623.035 396.146Z" fill="#FC9D9D"/>
<path d="M509.681 556.749L484.35 550.639C483.993 550.553 483.634 550.772 483.548 551.13L480.634 563.211C480.548 563.568 480.767 563.928 481.124 564.014L506.456 570.124C506.813 570.21 507.172 569.99 507.258 569.633L510.172 557.551C510.258 557.194 510.038 556.834 509.681 556.749Z" fill="#21252B"/>
<path opacity="0.3" d="M509.681 556.749L484.35 550.639C483.993 550.553 483.634 550.772 483.548 551.13L480.634 563.211C480.548 563.568 480.767 563.928 481.124 564.014L506.456 570.124C506.813 570.21 507.172 569.99 507.258 569.633L510.172 557.551C510.258 557.194 510.038 556.834 509.681 556.749Z" fill="black"/>
<path d="M508.816 556.528L483.485 550.418C483.128 550.332 482.769 550.551 482.683 550.909L479.769 562.991C479.683 563.347 479.902 563.707 480.259 563.793L505.591 569.903C505.948 569.989 506.307 569.769 506.393 569.412L509.307 557.33C509.393 556.973 509.173 556.613 508.816 556.528Z" fill="#21252B"/>
<path opacity="0.4" d="M507.094 558.911C507.256 558.759 507.358 558.554 507.38 558.334C507.402 558.113 507.344 557.891 507.216 557.711C507.151 557.628 507.071 557.559 506.978 557.508C506.886 557.458 506.784 557.427 506.68 557.417C506.575 557.408 506.469 557.421 506.369 557.454C506.27 557.487 506.178 557.541 506.1 557.612C505.936 557.762 505.834 557.968 505.813 558.19C505.791 558.411 505.853 558.632 505.986 558.812C506.05 558.894 506.13 558.962 506.222 559.011C506.313 559.061 506.414 559.091 506.518 559.101C506.621 559.11 506.726 559.098 506.826 559.065C506.924 559.033 507.016 558.98 507.094 558.911Z" fill="black"/>
<path d="M507.248 558.987C507.414 558.838 507.519 558.633 507.542 558.411C507.564 558.189 507.503 557.966 507.37 557.787C507.306 557.706 507.225 557.638 507.134 557.588C507.042 557.538 506.941 557.508 506.837 557.498C506.733 557.489 506.628 557.501 506.53 557.534C506.43 557.567 506.339 557.618 506.261 557.688C506.099 557.839 505.998 558.044 505.976 558.265C505.953 558.485 506.011 558.707 506.139 558.888C506.203 558.97 506.284 559.038 506.375 559.088C506.467 559.137 506.568 559.168 506.672 559.177C506.776 559.186 506.881 559.174 506.979 559.142C507.079 559.109 507.17 559.056 507.248 558.987Z" fill="#3F4249"/>
<path opacity="0.5" d="M507.086 558.759C507.187 558.66 507.248 558.529 507.261 558.389C507.273 558.249 507.236 558.109 507.155 557.995C507.114 557.933 507.06 557.883 506.996 557.846C506.934 557.809 506.862 557.786 506.789 557.779C506.716 557.773 506.643 557.783 506.574 557.808C506.505 557.833 506.443 557.873 506.391 557.926C506.292 558.024 506.23 558.155 506.217 558.295C506.204 558.435 506.242 558.575 506.322 558.69C506.363 558.751 506.418 558.801 506.481 558.839C506.544 558.875 506.615 558.898 506.688 558.905C506.762 558.911 506.835 558.902 506.904 558.877C506.973 558.852 507.035 558.811 507.086 558.759Z" fill="black"/>
<path opacity="0.4" d="M507.086 558.322C507.093 558.201 507.057 558.081 506.985 557.983C506.912 557.885 506.807 557.816 506.689 557.787H506.781C506.849 557.787 506.916 557.801 506.979 557.828C507.041 557.855 507.099 557.894 507.145 557.943C507.193 557.993 507.229 558.051 507.253 558.115C507.278 558.179 507.288 558.247 507.285 558.315C507.282 558.455 507.229 558.59 507.135 558.694C507.041 558.798 506.912 558.864 506.773 558.88H506.666C506.791 558.854 506.902 558.783 506.979 558.68C507.057 558.578 507.095 558.451 507.086 558.322Z" fill="black"/>
<path opacity="0.4" d="M507.094 558.911C507.256 558.759 507.358 558.554 507.38 558.334C507.402 558.113 507.344 557.891 507.216 557.711C507.151 557.628 507.071 557.559 506.978 557.508C506.886 557.458 506.784 557.427 506.68 557.417C506.575 557.408 506.469 557.421 506.369 557.454C506.27 557.487 506.178 557.541 506.1 557.612C505.936 557.762 505.834 557.968 505.813 558.19C505.791 558.411 505.853 558.632 505.986 558.812C506.05 558.894 506.13 558.962 506.222 559.011C506.313 559.061 506.414 559.091 506.518 559.101C506.621 559.11 506.726 559.098 506.826 559.065C506.924 559.033 507.016 558.98 507.094 558.911Z" fill="black"/>
<path d="M507.248 558.987C507.414 558.838 507.519 558.633 507.542 558.411C507.564 558.189 507.503 557.966 507.37 557.787C507.306 557.706 507.225 557.638 507.134 557.588C507.042 557.538 506.941 557.508 506.837 557.498C506.733 557.489 506.628 557.501 506.53 557.534C506.43 557.567 506.339 557.618 506.261 557.688C506.099 557.839 505.998 558.044 505.976 558.265C505.953 558.485 506.011 558.707 506.139 558.888C506.203 558.97 506.284 559.038 506.375 559.088C506.467 559.137 506.568 559.168 506.672 559.177C506.776 559.186 506.881 559.174 506.979 559.142C507.079 559.109 507.17 559.056 507.248 558.987Z" fill="#3F4249"/>
<path opacity="0.5" d="M507.086 558.759C507.187 558.66 507.248 558.529 507.261 558.389C507.273 558.249 507.236 558.109 507.155 557.995C507.114 557.933 507.06 557.883 506.996 557.846C506.934 557.809 506.862 557.786 506.789 557.779C506.716 557.773 506.643 557.783 506.574 557.808C506.505 557.833 506.443 557.873 506.391 557.926C506.292 558.024 506.23 558.155 506.217 558.295C506.204 558.435 506.242 558.575 506.322 558.69C506.363 558.751 506.418 558.801 506.481 558.839C506.544 558.875 506.615 558.898 506.688 558.905C506.762 558.911 506.835 558.902 506.904 558.877C506.973 558.852 507.035 558.811 507.086 558.759Z" fill="black"/>
<path opacity="0.4" d="M507.086 558.322C507.093 558.201 507.057 558.081 506.985 557.983C506.912 557.885 506.807 557.816 506.689 557.787H506.781C506.849 557.787 506.916 557.801 506.979 557.828C507.041 557.855 507.099 557.894 507.145 557.943C507.193 557.993 507.229 558.051 507.253 558.115C507.278 558.179 507.288 558.247 507.285 558.315C507.282 558.455 507.229 558.59 507.135 558.694C507.041 558.798 506.912 558.864 506.773 558.88H506.666C506.791 558.854 506.902 558.783 506.979 558.68C507.057 558.578 507.095 558.451 507.086 558.322Z" fill="black"/>
<g opacity="0.3">
<path opacity="0.3" d="M498.167 436.978C498.091 436.983 498.015 436.96 497.955 436.914C497.894 436.868 497.853 436.8 497.839 436.726C497.178 433.31 495.838 430.061 493.899 427.172C491.96 424.284 489.46 421.814 486.549 419.909C486.512 419.889 486.481 419.862 486.455 419.829C486.429 419.796 486.41 419.758 486.4 419.718C486.389 419.678 486.386 419.636 486.391 419.595C486.396 419.554 486.41 419.514 486.43 419.477C486.45 419.441 486.478 419.41 486.51 419.384C486.543 419.359 486.582 419.34 486.621 419.329C486.661 419.318 486.703 419.315 486.744 419.32C486.786 419.325 486.825 419.339 486.862 419.359C489.848 421.307 492.412 423.834 494.404 426.791C496.395 429.748 497.774 433.074 498.458 436.573C498.466 436.613 498.467 436.654 498.459 436.695C498.452 436.735 498.436 436.774 498.413 436.809C498.39 436.842 498.361 436.872 498.326 436.894C498.292 436.917 498.254 436.933 498.213 436.94L498.167 436.978Z" fill="black"/>
</g>
<path opacity="0.2" d="M508.455 524.064L518.897 524.912V523.384L514.57 481.236C514.263 478.287 513.462 475.411 512.201 472.729L500.666 441.657L498.121 435.932L498.694 437.942C499.933 443.338 500.697 450.982 500.223 454.972L500.621 457.128L506.216 478.247L508.455 524.064Z" fill="black"/>
<path d="M563.765 356.275L561.052 354.983L554.081 351.475L547.415 351.437C547.243 351.47 547.091 351.567 546.989 351.71C546.886 351.852 546.842 352.028 546.865 352.201C546.926 352.966 547.263 354.104 548.715 353.852L543.861 353.378C543.682 353.364 543.503 353.405 543.348 353.497C543.193 353.588 543.071 353.726 542.997 353.89L542.814 354.311C542.516 354.983 544.129 355.962 544.847 356.084L545.229 356.153L540.941 355.587C540.836 355.601 540.736 355.637 540.645 355.693C540.555 355.748 540.477 355.821 540.417 355.908C540.356 355.996 540.315 356.094 540.294 356.198C540.275 356.302 540.276 356.408 540.299 356.512C540.359 357.009 540.534 357.486 540.811 357.903C541.086 358.056 537.754 357.781 536.477 357.682C536.415 357.674 536.351 357.682 536.292 357.704C536.233 357.726 536.18 357.761 536.137 357.807C536.094 357.853 536.062 357.909 536.044 357.969C536.026 358.03 536.022 358.093 536.034 358.156C536.164 358.92 536.898 360.449 540.36 360.991C545.191 361.756 547.156 361.282 547.156 361.282L550.817 362.971L550.267 365.226L545.053 364.248L544.778 367.221C545.489 367.718 551.344 369.415 551.344 369.415C551.344 369.415 559.401 370.944 561.77 370.263C564.14 369.583 565.875 369.01 565.875 369.01L573.236 362.253L563.765 356.275Z" fill="#FC9D9D"/>
<path opacity="0.15" d="M551.619 362.206C551.619 362.206 556.205 360.501 558.552 357.811" stroke="black" stroke-width="0.458625" stroke-miterlimit="10" stroke-linecap="round"/>
<path opacity="0.15" d="M545.328 364.484L552.659 365.891C552.659 365.891 556.48 362.917 559.782 364.309" stroke="black" stroke-width="0.458625" stroke-miterlimit="10" stroke-linecap="round"/>
<path opacity="0.15" d="M541.178 358.308C541.178 358.308 546.238 359.072 548.432 358.071C548.432 358.071 549.265 359.599 551.994 359.982" stroke="black" stroke-width="0.458625" stroke-miterlimit="10" stroke-linecap="round"/>
<path opacity="0.15" d="M545.236 356.122C546.985 356.277 548.746 356.277 550.495 356.122C551.481 357.304 552.821 358.137 554.317 358.499" stroke="black" stroke-width="0.458625" stroke-miterlimit="10" stroke-linecap="round"/>
<path opacity="0.15" d="M548.125 353.959C549.661 354.287 551.246 354.302 552.788 354.005L555.769 356.069" stroke="black" stroke-width="0.458625" stroke-miterlimit="10" stroke-linecap="round"/>
<path opacity="0.15" d="M551.114 351.659C551.09 354.743 550.752 357.816 550.105 360.832L549.761 362.422L547.17 361.229L547.216 351.736L551.114 351.659Z" fill="black"/>
<path opacity="0.15" d="M550.351 365.372V369.194L546.414 367.849L546.987 364.577L550.351 365.372Z" fill="black"/>
<path opacity="0.15" d="M622.966 396.191C623.868 404.737 606.211 411.754 606.211 411.754L594.447 416.156L596.74 421.507L616.285 411.754C626.788 406.548 623.272 396.932 622.966 396.191Z" fill="black"/>
<path opacity="0.2" d="M596.77 421.506L572.349 433.706L569.734 425.42L594.47 416.156L596.77 421.506Z" fill="black"/>
<g opacity="0.3">
<path opacity="0.3" d="M572.349 434.02C572.281 434.021 572.214 434 572.158 433.96C572.103 433.92 572.063 433.863 572.043 433.798C572.043 433.676 568.535 422.019 567.289 419.527C567.251 419.451 567.246 419.364 567.273 419.283C567.3 419.203 567.358 419.137 567.434 419.099C567.471 419.081 567.511 419.07 567.552 419.068C567.594 419.065 567.635 419.071 567.674 419.085C567.713 419.098 567.75 419.119 567.78 419.147C567.811 419.174 567.836 419.207 567.854 419.244C569.131 421.782 572.509 433.133 572.647 433.615C572.671 433.696 572.661 433.783 572.622 433.858C572.581 433.932 572.513 433.988 572.433 434.012L572.349 434.02Z" fill="black"/>
</g>
<g opacity="0.3">
<path opacity="0.3" d="M539.702 495.506C539.633 495.504 539.565 495.479 539.51 495.437C539.455 495.394 539.416 495.336 539.396 495.269C539.385 495.228 539.382 495.186 539.387 495.144C539.393 495.102 539.406 495.061 539.428 495.025C539.449 494.989 539.477 494.957 539.512 494.932C539.546 494.907 539.584 494.888 539.626 494.879C539.756 494.879 552.903 491.195 559.071 479.844C559.088 479.801 559.113 479.762 559.146 479.73C559.179 479.698 559.217 479.674 559.26 479.658C559.303 479.641 559.349 479.635 559.395 479.638C559.441 479.642 559.485 479.655 559.526 479.677C559.565 479.7 559.6 479.729 559.628 479.766C559.655 479.803 559.675 479.845 559.685 479.89C559.694 479.934 559.694 479.981 559.685 480.026C559.675 480.07 559.656 480.112 559.63 480.15C553.323 491.745 539.924 495.437 539.756 495.491L539.702 495.506Z" fill="black"/>
</g>
<g opacity="0.15">
<path opacity="0.15" d="M492.419 484.293C492.358 484.293 492.297 484.216 492.274 484.094C492.253 484.024 492.25 483.949 492.265 483.878C492.279 483.806 492.311 483.739 492.358 483.681C493.512 482.703 495.851 483.62 495.951 483.681C496.05 483.742 496.096 483.888 496.081 484.056C496.065 484.224 495.981 484.338 495.89 484.308C495.798 484.277 493.543 483.383 492.48 484.308C492.459 484.31 492.437 484.305 492.419 484.293Z" fill="black"/>
</g>
<path d="M499.251 541.278L503.944 549.288L506.872 556.168L502.446 555.059C502.446 555.059 502.194 563.345 499.809 564.377C499.091 564.69 496.935 563.88 497.157 562.137C496.841 562.436 496.462 562.66 496.048 562.792C495.633 562.925 495.195 562.962 494.764 562.902C493.434 562.627 493.113 561.763 493.236 560.112C493.236 560.112 492.609 561.365 490.759 560.586C489.643 560.112 489.926 558.43 489.926 558.43C489.926 558.43 487.908 558.606 487.633 557.559C487.341 555.849 487.304 554.105 487.526 552.384L488.733 546.59L489.184 542.845L499.251 541.278Z" fill="#FC9D9D"/>
<path opacity="0.15" d="M489.965 558.461C490.307 557.302 490.528 556.111 490.622 554.906" stroke="black" stroke-width="0.466269" stroke-miterlimit="10" stroke-linecap="round"/>
<path opacity="0.15" d="M493.197 560.051C493.63 558.692 493.912 557.29 494.039 555.87" stroke="black" stroke-width="0.466269" stroke-miterlimit="10" stroke-linecap="round"/>
<path opacity="0.15" d="M497.158 562.144C497.637 560.433 497.97 558.684 498.152 556.916" stroke="black" stroke-width="0.466269" stroke-miterlimit="10" stroke-linecap="round"/>
<path opacity="0.15" d="M483.229 505.253L479.025 485.073L479.209 460.101L476.006 459.62L475.7 482.413C475.576 483.951 475.695 485.498 476.052 486.999L479.331 506.17L489.069 543.899L487.67 551.88L487.426 553.462L487.51 556.473C487.594 558.621 488.45 558.331 488.45 558.331V552.889L490.606 543.471L483.229 505.253Z" fill="black"/>
<path opacity="0.2" d="M474.479 459.604L476.902 430.558C476.902 430.558 476.902 417.831 485.807 413.382L486.861 413.054C481.87 417.495 481.671 425.154 481.671 425.154L479.21 460.124L474.479 459.604Z" fill="black"/>
<path d="M510.832 364.715L514.562 384.978L513.89 403.805L524.461 407.78C527.949 409.086 531.607 409.888 535.323 410.164H535.881C536.4 410.198 536.921 410.116 537.405 409.924C537.889 409.733 538.325 409.437 538.681 409.056C539.037 408.676 539.304 408.222 539.464 407.726C539.623 407.231 539.67 406.706 539.603 406.19L538.12 393.898L544.235 393.707C544.444 393.719 544.653 393.719 544.862 393.707C548.799 393.486 551.015 392.805 551.038 386.392L550.602 378.695L552.804 377.243C552.849 377.219 552.89 377.188 552.926 377.151C553.206 376.916 553.386 376.583 553.427 376.221C553.468 375.858 553.368 375.492 553.148 375.202L548.63 369.737L548.516 369.331L548.623 368.407C549.042 364.518 548.396 360.59 546.758 357.04L545.137 353.57L510.832 364.715Z" fill="#FC9D9D"/>
<path d="M545.412 358.492L536.384 360.258C532.104 363.315 538.777 367.94 528.427 370.149C528.236 371.333 529.773 375.981 527.785 376.264C526.256 376.638 526.104 374.559 525.882 373.527L520.164 375.423C521.051 382.6 518.483 384.534 514.592 386.124C508.844 376.523 496.362 355.419 513.254 351.773C514.898 351.865 515.471 350.015 515.93 349.396C517.458 345.322 524.621 342.646 529.505 344.435C531.184 345.505 533.099 346.147 535.083 346.306C537.067 346.464 539.06 346.134 540.887 345.345C550.151 341.813 555.241 355.587 545.412 358.492Z" fill="black"/>
<path d="M527.993 383.357L526.013 373.887C525.914 373.39 525.719 372.918 525.437 372.498C525.154 372.078 524.791 371.718 524.369 371.439C523.947 371.16 523.473 370.968 522.975 370.874C522.478 370.78 521.967 370.785 521.473 370.89C520.48 371.119 519.615 371.726 519.064 372.583C518.513 373.439 518.319 374.478 518.522 375.476L518.912 377.349C519.109 378.341 519.502 379.284 520.067 380.124C520.632 380.963 521.357 381.682 522.202 382.238C523.046 382.795 523.993 383.178 524.987 383.367C525.982 383.555 527.003 383.544 527.993 383.334V383.357Z" fill="#FC9D9D"/>
<g opacity="0.3">
<path opacity="0.3" d="M525.01 376.194L524.681 374.619C524.543 373.961 524.15 373.385 523.589 373.014C523.028 372.644 522.344 372.509 521.685 372.64C521.32 372.711 520.975 372.862 520.676 373.083C520.377 373.304 520.132 373.589 519.957 373.916V373.985C519.924 374.055 519.906 374.129 519.903 374.206C519.9 374.282 519.912 374.358 519.939 374.43C519.966 374.501 520.008 374.566 520.06 374.621C520.114 374.676 520.177 374.72 520.248 374.749C520.316 374.785 520.391 374.805 520.468 374.81C520.545 374.814 520.622 374.802 520.694 374.775C520.767 374.747 520.832 374.705 520.887 374.651C520.942 374.597 520.984 374.531 521.012 374.459C521.096 374.263 521.227 374.09 521.394 373.957C521.561 373.824 521.757 373.734 521.967 373.695C522.154 373.656 522.346 373.654 522.533 373.689C522.72 373.724 522.898 373.796 523.057 373.901C523.216 374.006 523.353 374.14 523.459 374.298C523.566 374.455 523.641 374.632 523.68 374.818L524.008 376.4C524.048 376.547 524.14 376.674 524.267 376.757C524.393 376.84 524.546 376.874 524.696 376.851C524.764 376.836 524.828 376.805 524.883 376.761C524.937 376.717 524.981 376.662 525.011 376.598C525.041 376.535 525.056 376.466 525.056 376.396C525.056 376.326 525.04 376.257 525.01 376.194Z" fill="#21252B"/>
</g>
<path opacity="0.15" d="M538.954 399.127L532.884 395.06C532.764 394.96 532.672 394.83 532.615 394.685C532.557 394.54 532.537 394.382 532.556 394.227C532.583 393.984 532.705 393.762 532.895 393.608C533.085 393.455 533.329 393.383 533.572 393.409L538.09 393.837L538.954 399.127Z" fill="black"/>
<path d="M538.028 394.042L533.572 393.408C525.836 393.156 526.012 373.886 526.012 373.886L528.695 372.785C529.161 380.987 532.012 384.541 532.012 384.541C535.452 389.211 538.892 388.187 541.101 386.59C542.423 385.626 543.432 383.578 544.09 382.064C546.062 377.478 550.625 379.427 550.625 379.427L551.015 386.383C551.015 392.796 548.775 393.477 544.839 393.698C544.629 393.71 544.42 393.71 544.212 393.698" fill="black"/>
<path opacity="0.15" d="M517.619 384.549L522.84 382.668C521.933 382.055 521.11 381.325 520.394 380.498C520.226 381.325 519.895 382.11 519.418 382.805C518.942 383.502 518.33 384.095 517.619 384.549Z" fill="black"/>
<path d="M545.757 372.268C546.542 372.125 547.048 371.297 546.887 370.421C546.727 369.545 545.96 368.952 545.175 369.095C544.39 369.239 543.884 370.066 544.046 370.942C544.206 371.819 544.972 372.412 545.757 372.268Z" fill="black"/>
<path d="M546.122 370.058C546.241 370.058 546.336 369.958 546.336 369.836C546.336 369.714 546.241 369.614 546.122 369.614C546.004 369.614 545.908 369.714 545.908 369.836C545.908 369.958 546.004 370.058 546.122 370.058Z" fill="white"/>
<path d="M550.931 383.656C549.695 383.606 548.457 383.745 547.262 384.069C547.197 384.089 547.128 384.087 547.064 384.062C547.002 384.037 546.948 383.991 546.915 383.933C546.881 383.874 546.868 383.806 546.879 383.738C546.889 383.671 546.922 383.61 546.972 383.564C548.036 382.489 549.382 381.737 550.855 381.393L550.931 383.656Z" fill="white"/>
<path d="M547.737 365.058C547.653 365.386 546.208 365.509 544.504 365.983C542.799 366.457 541.523 367.076 541.248 366.846C541.125 366.732 541.309 366.395 541.813 365.998C542.496 365.477 543.275 365.095 544.106 364.874C544.958 364.634 545.847 364.551 546.728 364.63C547.416 364.714 547.775 364.897 547.737 365.058Z" fill="black"/>
<path opacity="0.15" d="M596.771 396.145C596.771 396.145 600.8 399.768 603.857 401.297" stroke="black" stroke-width="0.764375" stroke-miterlimit="10" stroke-linecap="round"/>
<path opacity="0.2" d="M522.512 625.963C522.512 625.963 527.786 625.863 529.896 624.029" stroke="black" stroke-width="0.764375" stroke-miterlimit="10"/>
<path opacity="0.2" d="M582.516 625.764C582.516 625.764 587.324 625.864 588.333 624.793" stroke="black" stroke-width="0.764375" stroke-miterlimit="10"/>
<path opacity="0.15" d="M510.067 721.425L513.591 717.007L513.775 631.672L514.539 605.385L510.442 604.812C509.165 643.245 511.504 683.145 510.067 721.425Z" fill="black"/>
<g opacity="0.3">
<path opacity="0.3" d="M512.3 541.11L512.07 540.345C521.029 537.571 523.261 525.983 523.276 525.868L524.04 526.006C524.01 526.158 521.701 538.19 512.3 541.11Z" fill="black"/>
</g>
<path d="M838.802 728.364C838.802 728.364 838.153 710.119 848.25 704.577C858.347 699.035 932.331 696.108 932.331 696.108L968.463 721.202L966.552 740.549H838.787L838.802 728.364Z" fill="#1C252F"/>
<path d="M787.414 740.549C787.414 740.549 787.277 739.785 798.628 727.67C809.979 715.554 858.379 718.742 862.95 719.262C867.521 719.781 873.223 740.58 873.223 740.58L787.414 740.549Z" fill="#3D4E62"/>
<path d="M453.152 650.436H458.274V564.398H453.152V650.436Z" fill="#B2B6BB"/>
<path d="M413.199 650.436H418.321V564.398H413.199V650.436Z" fill="#B2B6BB"/>
<path opacity="0.2" d="M453.151 564.408H458.273V573.282L453.151 572.724V564.408ZM413.205 571.486L418.326 572.044V564.4H413.205V571.486Z" fill="black"/>
<path d="M413.335 557.994H458.135C458.807 558.002 459.447 558.276 459.917 558.756C460.387 559.236 460.648 559.883 460.642 560.554V564.109C460.648 564.781 460.387 565.427 459.917 565.907C459.447 566.387 458.807 566.661 458.135 566.669H450.491C448.064 566.697 445.673 566.077 443.566 564.873C441.147 563.617 438.461 562.962 435.735 562.962C433.009 562.962 430.323 563.617 427.904 564.873C425.778 566.06 423.374 566.656 420.94 566.601H413.297C412.964 566.597 412.636 566.527 412.33 566.397C412.025 566.266 411.749 566.076 411.516 565.838C411.284 565.6 411.101 565.319 410.978 565.011C410.854 564.702 410.793 564.372 410.797 564.04V560.524C410.797 560.191 410.863 559.861 410.99 559.554C411.118 559.247 411.305 558.967 411.541 558.732C411.776 558.497 412.056 558.311 412.364 558.184C412.672 558.057 413.002 557.993 413.335 557.994Z" fill="#444D5B"/>
<path d="M405.341 731.46H463.74C466.095 731.46 468.005 729.551 468.005 727.195V621.803C468.005 619.448 466.095 617.538 463.74 617.538H405.341C402.986 617.538 401.076 619.448 401.076 621.803V727.195C401.076 729.551 402.986 731.46 405.341 731.46Z" fill="#10AAFF"/>
<path opacity="0.2" d="M405.341 731.46H463.74C466.095 731.46 468.005 729.551 468.005 727.195V621.803C468.005 619.448 466.095 617.538 463.74 617.538H405.341C402.986 617.538 401.076 619.448 401.076 621.803V727.195C401.076 729.551 402.986 731.46 405.341 731.46Z" fill="black"/>
<path d="M457.172 617.539V731.461" stroke="#1656BD" stroke-width="1.08541" stroke-miterlimit="10"/>
<path d="M381.552 731.46H439.951C442.306 731.46 444.216 729.551 444.216 727.195V621.803C444.216 619.448 442.306 617.538 439.951 617.538H381.552C379.197 617.538 377.287 619.448 377.287 621.803V727.195C377.287 729.551 379.197 731.46 381.552 731.46Z" fill="#10AAFF"/>
<path d="M456.945 617.539H455.859V731.461H456.945V617.539Z" fill="#21252B"/>
<path d="M452.02 651.973H460.772V648.067H452.02V651.973Z" fill="white"/>
<path d="M452.02 700.932H460.772V697.026H452.02V700.932Z" fill="white"/>
<g opacity="0.3">
<path opacity="0.3" d="M432.283 722.457C432.87 722.457 433.431 722.224 433.846 721.81C434.26 721.396 434.492 720.834 434.492 720.248V629.93C434.494 629.639 434.437 629.351 434.326 629.082C434.216 628.813 434.054 628.568 433.849 628.363C433.643 628.156 433.399 627.994 433.131 627.882C432.862 627.77 432.575 627.713 432.283 627.713C431.993 627.713 431.705 627.77 431.436 627.882C431.168 627.994 430.924 628.156 430.719 628.363C430.514 628.568 430.351 628.813 430.241 629.082C430.13 629.351 430.073 629.639 430.074 629.93V720.248C430.074 720.834 430.307 721.396 430.722 721.81C431.136 722.224 431.698 722.457 432.283 722.457Z" fill="black"/>
<path opacity="0.3" d="M417.928 722.457C418.514 722.457 419.076 722.224 419.49 721.81C419.904 721.396 420.137 720.834 420.137 720.248V629.93C420.138 629.639 420.082 629.351 419.971 629.082C419.86 628.813 419.698 628.568 419.492 628.363C419.288 628.156 419.044 627.994 418.775 627.882C418.506 627.77 418.219 627.713 417.928 627.713C417.637 627.713 417.349 627.77 417.081 627.882C416.813 627.994 416.569 628.156 416.363 628.363C416.158 628.568 415.995 628.813 415.885 629.082C415.775 629.351 415.718 629.639 415.719 629.93V720.248C415.719 720.834 415.952 721.396 416.366 721.81C416.78 722.224 417.342 722.457 417.928 722.457Z" fill="black"/>
<path opacity="0.3" d="M403.588 722.457C404.174 722.457 404.736 722.224 405.15 721.81C405.565 721.396 405.797 720.834 405.797 720.248V629.93C405.799 629.639 405.742 629.351 405.631 629.082C405.521 628.813 405.358 628.568 405.153 628.363C404.948 628.156 404.704 627.994 404.436 627.882C404.167 627.77 403.879 627.713 403.588 627.713C403.298 627.713 403.009 627.77 402.741 627.882C402.473 627.994 402.229 628.156 402.023 628.363C401.818 628.568 401.656 628.813 401.545 629.082C401.435 629.351 401.378 629.639 401.379 629.93V720.248C401.379 720.834 401.612 721.396 402.026 721.81C402.441 722.224 403.002 722.457 403.588 722.457Z" fill="black"/>
<path opacity="0.3" d="M389.219 722.457C389.509 722.457 389.796 722.4 390.064 722.289C390.332 722.178 390.576 722.016 390.78 721.81C390.985 721.605 391.148 721.362 391.26 721.094C391.371 720.825 391.428 720.538 391.428 720.248V629.93C391.429 629.639 391.372 629.351 391.261 629.082C391.151 628.813 390.988 628.568 390.784 628.363C390.578 628.156 390.334 627.994 390.066 627.882C389.797 627.77 389.509 627.713 389.219 627.713C388.928 627.713 388.64 627.77 388.371 627.882C388.103 627.994 387.859 628.156 387.654 628.363C387.449 628.568 387.286 628.813 387.176 629.082C387.065 629.351 387.008 629.639 387.01 629.93V720.248C387.01 720.834 387.242 721.396 387.656 721.81C388.071 722.224 388.633 722.457 389.219 722.457Z" fill="black"/>
</g>
<path d="M408.198 741.046C410.71 741.046 412.746 739.01 412.746 736.498C412.746 733.986 410.71 731.95 408.198 731.95C405.687 731.95 403.65 733.986 403.65 736.498C403.65 739.01 405.687 741.046 408.198 741.046Z" fill="#3F4249"/>
<path d="M381.209 736.498C381.209 737.398 381.476 738.278 381.976 739.026C382.476 739.774 383.186 740.357 384.018 740.701C384.85 741.045 385.765 741.134 386.647 740.958C387.53 740.783 388.34 740.348 388.976 739.712C389.611 739.075 390.044 738.264 390.219 737.381C390.393 736.498 390.302 735.583 389.957 734.752C389.611 733.921 389.027 733.212 388.278 732.713C387.529 732.214 386.649 731.949 385.749 731.95C385.152 731.95 384.562 732.068 384.01 732.296C383.459 732.525 382.958 732.861 382.536 733.282C382.114 733.705 381.78 734.207 381.552 734.759C381.324 735.31 381.207 735.901 381.209 736.498Z" fill="#3F4249"/>
<path d="M385.758 734.251H459.329V731.278H385.758V734.251Z" fill="#21252B"/>
<path d="M454.734 736.498C454.734 737.397 455 738.274 455.499 739.022C455.996 739.768 456.705 740.352 457.534 740.696C458.362 741.042 459.275 741.134 460.156 740.962C461.037 740.79 461.848 740.36 462.485 739.728C463.123 739.096 463.558 738.289 463.739 737.409C463.918 736.53 463.833 735.616 463.495 734.785C463.157 733.953 462.58 733.24 461.837 732.735C461.094 732.231 460.219 731.958 459.321 731.95C458.721 731.946 458.125 732.06 457.569 732.286C457.012 732.512 456.506 732.846 456.08 733.269C455.654 733.692 455.315 734.195 455.084 734.749C454.854 735.304 454.734 735.898 454.734 736.498Z" fill="#3F4249"/>
<path d="M436.831 741.046C439.343 741.046 441.379 739.01 441.379 736.498C441.379 733.986 439.343 731.95 436.831 731.95C434.32 731.95 432.283 733.986 432.283 736.498C432.283 739.01 434.32 741.046 436.831 741.046Z" fill="#3F4249"/>
<path d="M436.832 738.265C437.807 738.265 438.598 737.474 438.598 736.499C438.598 735.524 437.807 734.733 436.832 734.733C435.857 734.733 435.066 735.524 435.066 736.499C435.066 737.474 435.857 738.265 436.832 738.265Z" fill="#868A91"/>
<path d="M457.518 736.499C457.518 736.848 457.621 737.189 457.815 737.48C458.009 737.77 458.285 737.996 458.608 738.13C458.93 738.264 459.285 738.298 459.627 738.23C459.97 738.162 460.285 737.994 460.532 737.747C460.778 737.5 460.947 737.186 461.015 736.843C461.083 736.501 461.048 736.146 460.914 735.823C460.781 735.501 460.554 735.225 460.264 735.031C459.974 734.837 459.633 734.733 459.283 734.733C458.815 734.733 458.366 734.919 458.034 735.25C457.703 735.582 457.518 736.031 457.518 736.499Z" fill="#868A91"/>
<path d="M718.122 353.906H705.525V740.718H718.122V353.906Z" fill="#B2B6BB"/>
<path opacity="0.2" d="M705.525 409.552L718.13 393.34V353.906H705.525V409.552Z" fill="black"/>
<path d="M806.805 277.468H624.502V361.358H806.805V277.468Z" fill="#10AAFF"/>
<path opacity="0.2" d="M806.805 277.468H624.502V361.358H806.805V277.468Z" fill="black"/>
<path d="M802.976 277.468H625.045V356.26H802.976V277.468Z" fill="#10AAFF"/>
<path d="M683.306 332.221H677.451V342.295H667.415V332.221H646.662V325.074L667.973 293.689H677.444V324.264H683.299L683.306 332.221ZM667.415 324.249V316.001C667.415 314.625 667.471 312.63 667.583 310.016C667.69 307.402 667.782 305.881 667.843 305.43H667.583C666.742 307.291 665.751 309.08 664.617 310.78L655.712 324.249H667.415Z" fill="white"/>
<path d="M727.617 317.979C727.617 326.464 726.226 332.747 723.444 336.829C720.661 340.91 716.378 342.949 710.594 342.944C704.989 342.944 700.762 340.839 697.913 336.63C695.065 332.421 693.641 326.204 693.641 317.979C693.641 309.403 695.024 303.081 697.791 299.015C700.558 294.949 704.826 292.911 710.594 292.9C716.2 292.9 720.44 295.03 723.314 299.29C726.188 303.551 727.622 309.78 727.617 317.979ZM703.845 317.979C703.845 323.941 704.355 328.214 705.374 330.798C706.393 333.381 708.128 334.671 710.579 334.665C712.974 334.665 714.701 333.358 715.762 330.744C716.822 328.13 717.354 323.876 717.359 317.979C717.359 312.017 716.822 307.734 715.746 305.13C714.676 302.524 712.949 301.224 710.579 301.224C708.21 301.224 706.436 302.524 705.389 305.13C704.342 307.737 703.845 312.032 703.845 317.979Z" fill="white"/>
<path d="M774.648 332.221H768.801V342.295H758.757V332.221H738.012V325.074L759.322 293.689H768.801V324.264H774.648V332.221ZM758.757 324.249V316.001C758.757 314.625 758.813 312.63 758.925 310.016C759.04 307.402 759.124 305.881 759.193 305.43H758.925C758.09 307.292 757.1 309.083 755.967 310.78L747.054 324.249H758.757Z" fill="white"/>
<path d="M760.553 270.725L763.121 276.466C763.156 276.523 763.204 276.569 763.261 276.601C763.319 276.633 763.384 276.65 763.45 276.649H766.935C768.151 276.649 769.664 276.39 769.794 278.117C769.794 278.599 770.559 278.606 770.559 278.117C770.329 275.06 766.507 275.9 764.398 275.9H763.633C763.228 275.9 763.84 276.252 763.702 275.939L762.846 274.012C762.296 272.789 761.748 271.566 761.203 270.343C761.004 269.908 760.354 270.29 760.553 270.725Z" fill="#21252B"/>
<path d="M763.474 275.94C761.502 275.94 758.284 275.313 758.123 278.157C758.123 278.646 758.887 278.646 758.887 278.157C758.941 277.079 759.652 276.689 760.6 276.689H763.458C763.56 276.689 763.657 276.649 763.729 276.577C763.801 276.505 763.841 276.408 763.841 276.307C763.841 276.205 763.801 276.108 763.729 276.037C763.657 275.965 763.56 275.925 763.458 275.925" fill="#21252B"/>
<path d="M741.238 261.019C741.238 261.019 754.837 248.583 759.37 243.584C763.903 238.584 769.719 235.795 775.421 237.423C781.123 239.051 784.831 245.326 782.859 253.23C780.886 261.134 771.745 272.752 759.378 272.171C747.01 271.59 742.973 263.343 741.238 261.019Z" fill="#DADDDF"/>
<path opacity="0.1" d="M741.238 261.019C741.238 261.019 754.837 248.583 759.37 243.584C763.903 238.584 769.719 235.795 775.421 237.423C781.123 239.051 784.831 245.326 782.859 253.23C780.886 261.134 771.745 272.752 759.378 272.171C747.01 271.59 742.973 263.343 741.238 261.019Z" fill="black"/>
<path d="M745.418 266.431C746.275 267.035 747.265 267.424 748.304 267.566C749.343 267.706 750.401 267.595 751.388 267.241C751.388 267.241 749.591 269.228 752.779 269.626C755.966 270.023 762.532 267.432 762.532 267.432C762.532 267.432 761.004 269.809 763.358 269.671C765.712 269.534 770.642 266.805 774.694 262.654C778.745 258.504 784.47 251.854 780.87 244.027C777.98 237.751 768.808 233.669 755.729 248.315L745.418 266.431Z" fill="#DADDDF"/>
<path d="M775.413 237.423C769.718 235.795 763.901 238.584 759.361 243.584C757.748 245.364 754.973 248.093 752.084 250.868L755.203 254.002L760.981 249.653C760.981 249.653 760.981 245.013 764.803 244.631C770.398 244.08 769.558 255.577 783.332 249.561C783.53 243.446 780.144 238.783 775.367 237.423" fill="#10AAFF"/>
<path opacity="0.2" d="M775.413 237.423C769.718 235.795 763.901 238.584 759.361 243.584C757.748 245.364 754.973 248.093 752.084 250.868L755.203 254.002L760.981 249.653C760.981 249.653 760.981 245.013 764.803 244.631C770.398 244.08 769.558 255.577 783.332 249.561C783.53 243.446 780.144 238.783 775.367 237.423" fill="black"/>
<path d="M777.736 246.955C777.736 247.324 777.629 247.685 777.423 247.991C777.217 248.299 776.926 248.537 776.582 248.679C776.238 248.819 775.864 248.856 775.504 248.783C775.145 248.711 774.809 248.533 774.549 248.27C774.289 248.009 774.113 247.676 774.044 247.313C773.968 246.952 774.006 246.577 774.151 246.236C774.289 245.895 774.534 245.604 774.839 245.4C775.145 245.196 775.512 245.088 775.879 245.09C776.123 245.09 776.368 245.138 776.59 245.232C776.819 245.325 777.025 245.463 777.194 245.636C777.369 245.81 777.507 246.016 777.599 246.242C777.69 246.468 777.736 246.71 777.736 246.955Z" fill="black"/>
<path d="M782.965 245.555C782.965 245.555 786.833 247.474 786.917 248.261C787.001 249.049 783.179 251.586 783.179 251.586C783.179 251.586 781.452 247.91 782.965 245.555Z" fill="#3F4249"/>
<path d="M758.809 271.353L761.378 277.086C761.41 277.145 761.457 277.194 761.515 277.227C761.573 277.261 761.639 277.279 761.706 277.277H765.192C766.415 277.277 767.921 277.017 768.051 278.745C768.089 279.226 768.815 279.226 768.815 278.745C768.586 275.687 764.764 276.52 762.7 276.52H761.936C761.523 276.52 762.135 276.872 761.997 276.566L761.133 274.64L759.49 270.971C759.291 270.528 758.641 270.91 758.84 271.353" fill="#21252B"/>
<path d="M761.708 276.489C759.736 276.489 756.526 275.862 756.357 278.713C756.357 279.203 757.122 279.195 757.122 278.713C757.175 277.636 757.886 277.246 758.834 277.246H761.693C761.794 277.246 761.892 277.205 761.963 277.134C762.034 277.062 762.075 276.965 762.075 276.864C762.075 276.762 762.034 276.665 761.963 276.594C761.892 276.522 761.794 276.481 761.693 276.481" fill="#21252B"/>
<path d="M733.801 264.849C733.801 264.849 749.906 251.213 754.003 249.027C758.1 246.84 764.773 247.429 766.463 253.231C768.32 259.621 761.953 271.01 743.982 264.849L738.563 273.341L733.801 264.849Z" fill="#10AAFF"/>
<path opacity="0.2" d="M744.951 260.653C744.951 260.653 745.868 262.181 750.576 258.451C750.576 258.451 748.574 261.096 750.202 261.509C751.83 261.921 756.21 258.803 756.21 258.803C756.21 258.803 753.978 261.019 755.85 261.662C757.723 262.304 760.819 259.575 761.522 257.962C762.225 256.349 763.762 252.565 760.704 250.869C757.647 249.172 752.38 251.167 748.742 254.087C745.103 257.007 744.071 258.917 744.92 260.653" fill="white"/>
<path d="M776.781 246.81C776.781 246.889 776.758 246.967 776.72 247.032C776.674 247.099 776.613 247.151 776.544 247.182C776.468 247.213 776.391 247.223 776.315 247.208C776.231 247.194 776.162 247.156 776.109 247.101C776.047 247.046 776.009 246.975 775.994 246.898C775.979 246.821 775.986 246.74 776.017 246.667C776.047 246.594 776.093 246.532 776.162 246.487C776.231 246.444 776.307 246.42 776.384 246.42C776.491 246.42 776.59 246.461 776.659 246.534C776.735 246.607 776.781 246.706 776.781 246.81Z" fill="white"/>
<path d="M830.493 710.999C829.728 712.956 829.017 714.92 828.276 716.885C828.245 716.943 828.199 716.993 828.146 717.029C828.092 717.065 828.031 717.086 827.962 717.091L824.485 717.305C823.269 717.381 821.74 717.213 821.717 718.948C821.717 719.43 820.953 719.483 820.953 718.994C820.953 715.937 824.851 716.525 826.961 716.395L827.725 716.349C828.138 716.349 827.55 716.709 827.664 716.395L828.429 714.416C828.895 713.162 829.369 711.908 829.843 710.655C830.011 710.204 830.684 710.548 830.515 710.999" fill="#21252B"/>
<path d="M827.917 716.334C829.881 716.212 833.053 715.394 833.367 718.222C833.42 718.711 832.671 718.749 832.602 718.268C832.48 717.198 831.746 716.854 830.798 716.915L827.947 717.091C827.848 717.097 827.748 717.063 827.672 716.995C827.596 716.928 827.55 716.833 827.542 716.732C827.534 716.631 827.573 716.53 827.634 716.455C827.702 716.379 827.802 716.333 827.901 716.326" fill="#21252B"/>
<path d="M849.22 700.106C849.22 700.106 834.873 688.534 830.042 683.825C825.211 679.117 819.234 676.694 813.654 678.673C808.074 680.653 804.711 687.173 807.179 694.909C809.648 702.644 819.486 713.705 831.785 712.367C844.083 711.029 847.6 702.537 849.197 700.137" fill="#DADDDF"/>
<path opacity="0.1" d="M849.22 700.106C849.22 700.106 834.873 688.534 830.042 683.825C825.211 679.117 819.234 676.694 813.654 678.673C808.074 680.653 804.711 687.173 807.179 694.909C809.648 702.644 819.486 713.705 831.785 712.367C844.083 711.029 847.6 702.537 849.197 700.137" fill="black"/>
<path d="M845.344 705.771C844.526 706.427 843.563 706.876 842.539 707.081C841.507 707.286 840.452 707.24 839.443 706.948C839.443 706.948 841.354 708.821 838.197 709.417C835.04 710.013 828.329 707.835 828.329 707.835C828.329 707.835 830.026 710.128 827.649 710.128C825.272 710.128 820.196 707.728 815.893 703.83C811.589 699.931 805.467 693.656 808.578 685.622C811.077 679.179 819.974 674.531 833.94 688.343L845.344 705.771Z" fill="#DADDDF"/>
<path d="M813.624 678.673C819.204 676.693 825.174 679.124 830.012 683.825C831.732 685.506 834.667 688.059 837.732 690.65L834.805 693.968L828.766 689.985C828.766 689.985 828.499 685.399 824.608 685.216C818.99 685.009 820.534 696.429 806.424 691.277C805.843 685.162 808.931 680.331 813.624 678.673Z" fill="#10AAFF"/>
<path opacity="0.2" d="M813.624 678.673C819.204 676.693 825.174 679.124 830.012 683.825C831.732 685.506 834.667 688.059 837.732 690.65L834.805 693.968L828.766 689.985C828.766 689.985 828.499 685.399 824.608 685.216C818.99 685.009 820.534 696.429 806.424 691.277C805.843 685.162 808.931 680.331 813.624 678.673Z" fill="black"/>
<path d="M811.888 688.327C811.911 688.693 812.041 689.045 812.263 689.337C812.492 689.628 812.79 689.848 813.142 689.967C813.486 690.085 813.86 690.099 814.22 690.005C814.571 689.911 814.892 689.715 815.137 689.439C815.374 689.164 815.534 688.823 815.58 688.46C815.634 688.096 815.573 687.726 815.412 687.396C815.252 687.066 814.999 686.791 814.678 686.606C814.365 686.42 813.998 686.333 813.631 686.355C813.142 686.387 812.683 686.612 812.355 686.981C812.026 687.351 811.858 687.835 811.888 688.327Z" fill="black"/>
<path d="M806.583 687.258C806.583 687.258 802.845 689.414 802.807 690.201C802.769 690.988 806.743 693.258 806.743 693.258C806.743 693.258 808.272 689.436 806.583 687.22" fill="#3F4249"/>
<path d="M832.289 711.48L830.073 717.366C830.042 717.426 830.004 717.477 829.943 717.513C829.889 717.549 829.828 717.57 829.759 717.572L826.289 717.786C825.066 717.863 823.545 717.702 823.514 719.43C823.514 719.911 822.75 719.965 822.75 719.476C822.796 716.418 826.656 717.007 828.758 716.877L829.522 716.831C829.927 716.831 829.339 717.198 829.461 716.877L830.226 714.905L831.64 711.144C831.808 710.685 832.481 711.029 832.312 711.48" fill="#21252B"/>
<path d="M829.713 716.816C831.685 716.694 834.85 715.876 835.163 718.712C835.217 719.193 834.468 719.239 834.399 718.758C834.277 717.68 833.543 717.335 832.595 717.396L829.744 717.573C829.645 717.578 829.545 717.544 829.469 717.477C829.392 717.409 829.346 717.315 829.339 717.214C829.331 717.112 829.369 717.013 829.438 716.936C829.499 716.861 829.599 716.814 829.698 716.809" fill="#21252B"/>
<path d="M856.865 703.478C856.865 703.478 839.942 690.858 835.722 688.955C831.503 687.051 824.876 688.03 823.546 693.923C822.086 700.42 829.149 711.397 846.699 704.135L852.63 712.268L856.865 703.478Z" fill="#10AAFF"/>
<path opacity="0.2" d="M845.46 699.984C845.46 699.984 844.642 701.589 839.704 698.134C839.704 698.134 841.867 700.649 840.27 701.192C838.672 701.735 834.101 698.899 834.101 698.899C834.101 698.899 836.471 700.97 834.636 701.727C832.802 702.484 829.553 699.954 828.751 698.379C827.948 696.804 826.182 693.135 829.133 691.255C832.083 689.375 837.457 691.033 841.263 693.724C845.07 696.415 846.232 698.257 845.46 700.045" fill="white"/>
<path d="M812.836 688.129C812.867 688.21 812.92 688.281 812.989 688.33C813.066 688.378 813.15 688.401 813.234 688.396C813.325 688.391 813.402 688.357 813.471 688.3C813.539 688.244 813.585 688.168 813.601 688.083C813.616 688.023 813.616 687.96 813.601 687.902C813.585 687.842 813.555 687.787 813.517 687.74C813.471 687.694 813.425 687.657 813.364 687.633C813.31 687.609 813.249 687.599 813.188 687.602C813.127 687.606 813.066 687.624 813.012 687.654C812.959 687.684 812.913 687.727 812.882 687.778C812.852 687.829 812.829 687.887 812.821 687.948C812.813 688.009 812.813 688.07 812.836 688.129Z" fill="white"/>
<path d="M691.798 708.965C688.618 705.144 685.003 701.398 682.236 697.293C681.624 696.384 678.452 690.559 681.074 691.27C683.696 691.981 686.004 696.384 687.113 698.524C688.221 700.664 689.406 702.797 690.422 704.983C690.941 705.917 691.374 706.897 691.714 707.911C691.714 708.041 692.02 709.218 691.798 708.965C692.196 709.432 689.406 706.114 691.798 708.965Z" fill="#10AAFF"/>
<path d="M704.617 740.68C704.579 739.327 704.373 737.984 704.005 736.682C703.239 734.04 702.032 731.547 700.436 729.306C697.103 724.521 692.463 720.011 686.929 717.955C685.647 717.458 684.31 717.116 682.947 716.939C682.305 716.87 680.317 716.564 679.821 717.13C679.324 717.695 679.95 717.573 680.44 717.779C681.416 718.216 682.356 718.727 683.253 719.308C691.661 724.475 701.598 730.514 703.822 740.711L704.617 740.68Z" fill="#10AAFF"/>
<path opacity="0.2" d="M704.617 740.68C704.579 739.327 704.373 737.984 704.005 736.682C703.239 734.04 702.032 731.547 700.436 729.306C697.103 724.521 692.463 720.011 686.929 717.955C685.647 717.458 684.31 717.116 682.947 716.939C682.305 716.87 680.317 716.564 679.821 717.13C679.324 717.695 679.95 717.573 680.44 717.779C681.416 718.216 682.356 718.727 683.253 719.308C691.661 724.475 701.598 730.514 703.822 740.711L704.617 740.68Z" fill="black"/>
<path d="M706.451 740.679C705.969 732.86 703.645 725.331 701.1 717.97C699.946 714.622 698.807 711.228 697.37 707.979C695.635 704.05 693.51 700.236 691.431 696.514C690.445 694.74 689.428 692.99 688.327 691.285C687.831 690.521 687.318 689.757 686.799 688.992C686.585 688.709 685.56 687.754 685.553 687.418C685.553 686.921 686.019 687.333 686.317 687.502C687.013 687.942 687.675 688.436 688.297 688.977C689.797 690.293 691.169 691.75 692.394 693.326C695.046 696.65 697.22 700.329 698.853 704.257C700.352 708.156 701.645 712.131 702.728 716.166C704.14 720.816 705.254 725.552 706.061 730.345C706.411 732.491 706.651 734.655 706.779 736.827C706.825 737.744 706.841 738.661 706.833 739.579C706.833 739.8 706.932 740.442 706.833 740.61C706.749 740.603 706.481 741.153 706.451 740.679Z" fill="#10AAFF"/>
<path opacity="0.2" d="M706.451 740.679C705.969 732.86 703.645 725.331 701.1 717.97C699.946 714.622 698.807 711.228 697.37 707.979C695.635 704.05 693.51 700.236 691.431 696.514C690.445 694.74 689.428 692.99 688.327 691.285C687.831 690.521 687.318 689.757 686.799 688.992C686.585 688.709 685.56 687.754 685.553 687.418C685.553 686.921 686.019 687.333 686.317 687.502C687.013 687.942 687.675 688.436 688.297 688.977C689.797 690.293 691.169 691.75 692.394 693.326C695.046 696.65 697.22 700.329 698.853 704.257C700.352 708.156 701.645 712.131 702.728 716.166C704.14 720.816 705.254 725.552 706.061 730.345C706.411 732.491 706.651 734.655 706.779 736.827C706.825 737.744 706.841 738.661 706.833 739.579C706.833 739.8 706.932 740.442 706.833 740.61C706.749 740.603 706.481 741.153 706.451 740.679Z" fill="black"/>
<path d="M706.191 740.679H706.833C706.833 740.251 706.749 739.8 706.734 739.464C706.657 737.57 706.46 735.684 706.145 733.815C705.487 729.734 704.266 725.765 702.514 722.021C699.251 715.141 694.435 708.896 687.655 705.281C687.013 704.945 679.476 701.604 679.247 702.621C679.117 703.11 681.723 704.532 682.136 704.83C683.474 705.801 684.796 706.81 686.08 707.887C691.729 712.474 697.156 717.534 700.718 723.939C703.496 729.162 705.347 734.825 706.191 740.679Z" fill="#10AAFF"/>
<path d="M709.745 740.679H710.051C710.051 740.189 710.051 739.693 710.051 739.203C710.051 737.82 710.051 736.436 709.99 735.053C709.913 731.942 709.76 728.823 709.47 725.727C708.95 720.018 708.339 714.323 706.359 708.911C705.914 707.665 705.403 706.443 704.83 705.251C704.723 705.044 703.936 703.232 703.691 703.591C703.607 703.721 703.798 704.401 703.821 704.554C703.905 705.074 703.997 705.594 704.081 706.083C704.295 707.344 704.517 708.598 704.754 709.851C705.801 715.47 707.177 721.019 708.048 726.668C708.751 731.338 709.279 736.001 709.745 740.679Z" fill="#10AAFF"/>
<path opacity="0.2" d="M709.745 740.679H710.051C710.051 740.189 710.051 739.693 710.051 739.203C710.051 737.82 710.051 736.436 709.99 735.053C709.913 731.942 709.76 728.823 709.47 725.727C708.95 720.018 708.339 714.323 706.359 708.911C705.914 707.665 705.403 706.443 704.83 705.251C704.723 705.044 703.936 703.232 703.691 703.591C703.607 703.721 703.798 704.401 703.821 704.554C703.905 705.074 703.997 705.594 704.081 706.083C704.295 707.344 704.517 708.598 704.754 709.851C705.801 715.47 707.177 721.019 708.048 726.668C708.751 731.338 709.279 736.001 709.745 740.679Z" fill="white"/>
<path d="M714.644 724.567C714.252 721.312 714.371 718.016 714.995 714.798C715.273 712.894 715.734 711.019 716.371 709.203C717.07 707.505 717.96 705.892 719.024 704.395C719.436 703.784 719.849 703.172 720.247 702.553C720.361 702.37 721.011 701.024 721.172 701.024C721.867 700.948 721.072 704.082 720.935 704.563C720.371 706.282 719.62 707.932 718.695 709.486C717.769 711.15 717.058 712.925 716.578 714.768C716.025 716.681 715.576 718.623 715.232 720.585C715.087 721.464 714.972 722.343 714.911 723.229C714.953 723.577 714.953 723.929 714.911 724.277C714.927 724.131 714.69 725.11 714.644 724.567Z" fill="#10AAFF"/>
<path opacity="0.2" d="M714.644 724.567C714.252 721.312 714.371 718.016 714.995 714.798C715.273 712.894 715.734 711.019 716.371 709.203C717.07 707.505 717.96 705.892 719.024 704.395C719.436 703.784 719.849 703.172 720.247 702.553C720.361 702.37 721.011 701.024 721.172 701.024C721.867 700.948 721.072 704.082 720.935 704.563C720.371 706.282 719.62 707.932 718.695 709.486C717.769 711.15 717.058 712.925 716.578 714.768C716.025 716.681 715.576 718.623 715.232 720.585C715.087 721.464 714.972 722.343 714.911 723.229C714.953 723.577 714.953 723.929 714.911 724.277C714.927 724.131 714.69 725.11 714.644 724.567Z" fill="black"/>
<path d="M712.803 698.64C712.948 700.099 713.055 701.567 713.17 703.035C713.675 709.616 713.934 716.22 713.858 722.809C713.782 728.16 713.629 735.108 713.789 740.703H714.301C714.301 739.656 714.301 738.486 714.301 738.035C714.393 736.4 714.454 734.152 714.577 732.524C714.867 728.84 715.219 725.171 715.471 721.487C715.907 715.097 716.296 708.683 714.913 702.377C714.617 700.973 714.231 699.589 713.759 698.234C713.529 697.577 713.27 696.935 712.994 696.301C712.926 696.148 712.719 695.399 712.497 695.651C712.276 695.903 712.543 696.484 712.566 696.675C712.658 697.31 712.742 697.959 712.803 698.64Z" fill="#10AAFF"/>
<path d="M717.961 741.443C718.312 738.385 718.725 734.365 719.008 732.966C719.811 728.899 720.736 724.863 721.821 720.866C723.564 714.453 726.247 708.238 728.975 702.192C729.686 700.617 730.397 699.035 731.146 697.476C731.345 697.078 732.675 694.885 731.911 694.923C731.529 694.923 730.588 696.039 730.283 696.322C729.656 696.898 729.062 697.508 728.502 698.149C727.399 699.368 726.399 700.677 725.512 702.062C721.751 707.91 720.269 714.674 719 721.416C717.894 728.046 717.162 734.732 716.807 741.443H717.961Z" fill="#10AAFF"/>
<path d="M749.087 689.864C748.322 689.802 747 690.513 746.335 690.788C745.417 691.162 744.519 691.583 743.644 692.05C741.972 692.951 740.379 693.992 738.882 695.161C731.544 700.848 727.264 709.256 723.74 717.649C721.004 724.169 717.793 733.7 717.625 741.444H718.443C718.443 740.977 718.443 740.61 718.443 740.557C718.519 739.561 718.657 738.57 718.856 737.591C719.341 735.196 720.005 732.841 720.843 730.544C722.589 725.788 724.65 721.153 727.012 716.67C731.216 708.667 736.74 701.432 743.354 695.268C744.944 693.739 746.625 692.363 748.353 691.025C748.896 690.628 750.241 689.955 749.087 689.864Z" fill="#10AAFF"/>
<path opacity="0.2" d="M749.087 689.864C748.322 689.802 747 690.513 746.335 690.788C745.417 691.162 744.519 691.583 743.644 692.05C741.972 692.951 740.379 693.992 738.882 695.161C731.544 700.848 727.264 709.256 723.74 717.649C721.004 724.169 717.793 733.7 717.625 741.444H718.443C718.443 740.977 718.443 740.61 718.443 740.557C718.519 739.561 718.657 738.57 718.856 737.591C719.341 735.196 720.005 732.841 720.843 730.544C722.589 725.788 724.65 721.153 727.012 716.67C731.216 708.667 736.74 701.432 743.354 695.268C744.944 693.739 746.625 692.363 748.353 691.025C748.896 690.628 750.241 689.955 749.087 689.864Z" fill="white"/>
<path d="M749.293 712.581C748.811 711.939 745.93 712.267 745.257 712.328C744.041 712.456 742.842 712.712 741.68 713.092C735.205 715.148 730.344 720.277 726.232 725.467C722.96 729.595 719.421 735.871 717.969 741.451H718.955C719.115 740.743 719.314 740.043 719.551 739.357C720.266 737.728 721.123 736.165 722.112 734.686C724.117 731.66 726.422 728.844 728.991 726.278C733.519 721.761 738.704 717.955 744.37 714.989C745.567 714.351 746.808 713.805 748.085 713.353C748.421 713.231 749.675 713.101 749.293 712.581Z" fill="#10AAFF"/>
<path opacity="0.2" d="M749.293 712.581C748.811 711.939 745.93 712.267 745.257 712.328C744.041 712.456 742.842 712.712 741.68 713.092C735.205 715.148 730.344 720.277 726.232 725.467C722.96 729.595 719.421 735.871 717.969 741.451H718.955C719.115 740.743 719.314 740.043 719.551 739.357C720.266 737.728 721.123 736.165 722.112 734.686C724.117 731.66 726.422 728.844 728.991 726.278C733.519 721.761 738.704 717.955 744.37 714.989C745.567 714.351 746.808 713.805 748.085 713.353C748.421 713.231 749.675 713.101 749.293 712.581Z" fill="black"/>
<path d="M919.1 742.207C919.1 742.207 912.221 739.975 911.51 727.203C910.929 717.013 903.346 720.606 897.843 713.253C891.567 704.845 897.078 701.137 892.905 691.544C890.329 685.621 882.632 688.93 881.951 675.164C881.271 661.398 879.819 658.6 876.914 652.997C876.914 652.997 885.016 662.819 891.437 666.618C897.407 670.173 898.546 669.034 902.322 671.686C906.839 674.851 903.851 680.171 908.437 683.648C913.023 687.126 917.311 685.743 920.621 690.329C926.4 698.317 922.433 704.088 926.897 709.324C931.361 714.56 939.272 714.499 944.974 723.771C948.368 729.286 949.583 735.868 948.375 742.23L919.1 742.207Z" fill="#10AAFF"/>
<path d="M935.618 742.208L894.861 683.176" stroke="black" stroke-width="0.466269" stroke-linecap="round" stroke-linejoin="round"/>
<path d="M903.309 703.752L915.24 712.695" stroke="black" stroke-width="0.466269" stroke-linecap="round" stroke-linejoin="round"/>
<path d="M903.789 687.029L905.272 698.265" stroke="black" stroke-width="0.466269" stroke-linecap="round" stroke-linejoin="round"/>
<path d="M927.822 719.483L929.871 733.883" stroke="black" stroke-width="0.466269" stroke-linecap="round" stroke-linejoin="round"/>
<path d="M937.727 742.208C937.727 742.208 929.021 721.31 929.87 707.154C930.718 692.998 934.991 689.65 932.706 679.3C930.42 668.95 922.004 666.374 925.536 652.975C929.067 639.575 934.173 637.458 933.179 608.641C933.179 608.641 936.826 629.493 946.319 641.624C954.429 651.989 957.731 654.725 954.727 673.682C951.983 691.14 956.577 693.685 961.293 700.817C966.009 707.949 968.83 726.485 962.822 742.17L937.727 742.208Z" fill="#10AAFF"/>
<path opacity="0.3" d="M937.727 742.208C937.727 742.208 929.021 721.31 929.87 707.154C930.718 692.998 934.991 689.65 932.706 679.3C930.42 668.95 922.004 666.374 925.536 652.975C929.067 639.575 934.173 637.458 933.179 608.641C933.179 608.641 936.826 629.493 946.319 641.624C954.429 651.989 957.731 654.725 954.727 673.682C951.983 691.14 956.577 693.685 961.293 700.817C966.009 707.949 968.83 726.485 962.822 742.17L937.727 742.208Z" fill="white"/>
<path d="M936.939 638.109C936.939 638.109 943.054 652.12 942.902 675.441C942.779 697.608 945.623 725.125 952.976 742.209" stroke="black" stroke-width="0.466269" stroke-linecap="round" stroke-linejoin="round"/>
<path d="M931.008 654.305C931.008 654.305 938.453 660.84 942.764 668.629" stroke="black" stroke-width="0.466269" stroke-linecap="round" stroke-linejoin="round"/>
<path d="M947.635 668.637C947.635 668.637 947.741 675.983 943.109 687.288" stroke="black" stroke-width="0.466269" stroke-linecap="round" stroke-linejoin="round"/>
<path d="M935.596 700.053C936.299 702.763 937.53 705.307 939.219 707.538C940.908 709.768 943.025 711.641 945.449 713.047" stroke="black" stroke-width="0.466269" stroke-linecap="round" stroke-linejoin="round"/>
<path d="M964.732 682.143C964.732 682.143 961.369 674.04 970.847 657.828C980.325 641.616 989.467 636.838 993.014 638.91C997.997 641.784 988.206 676.364 964.732 682.143Z" fill="#10AAFF"/>
<path d="M959.672 698.533C962.913 687.763 964.763 677.199 974.784 665.244" stroke="black" stroke-width="0.466269" stroke-linecap="round" stroke-linejoin="round"/>
<path d="M975.259 728.389C975.259 728.389 970.336 721.043 973.799 700.795C977.261 680.547 983.139 672.261 987.557 673.239C992.327 674.309 995.048 713.468 975.259 728.389Z" fill="#10AAFF"/>
<path d="M969.533 742.208C969.533 742.208 978.423 727.097 979.225 704.433" stroke="black" stroke-width="0.466269" stroke-linecap="round" stroke-linejoin="round"/>
<path d="M358.752 733.54C358.752 733.54 359.18 721.417 352.469 717.732C345.757 714.048 296.578 712.106 296.578 712.106L272.576 728.777L273.845 741.634H358.759L358.752 733.54Z" fill="#1C252F"/>
<path d="M331.946 739.915C332.16 738.119 332.405 735.719 332.565 734.893C333.047 732.485 333.597 730.085 334.239 727.715C335.359 723.921 336.775 720.221 338.474 716.647C338.894 715.715 339.315 714.782 339.766 713.857C339.88 713.62 340.66 712.329 340.224 712.329C339.995 712.329 339.46 712.986 339.261 713.154C338.89 713.497 338.538 713.86 338.206 714.24C337.552 714.953 336.959 715.72 336.433 716.533C334.209 720.003 333.322 724.008 332.573 727.998C331.915 731.928 331.481 735.891 331.273 739.869L331.946 739.915Z" fill="#10AAFF"/>
<path d="M350.404 709.34C349.833 709.426 349.282 709.612 348.776 709.89C348.23 710.117 347.698 710.372 347.179 710.655C346.187 711.187 345.244 711.803 344.358 712.497C340.009 715.868 337.479 720.852 335.384 725.828C333.756 729.68 331.853 735.329 331.738 739.915H332.22C332.22 739.64 332.22 739.426 332.22 739.388C332.276 738.794 332.37 738.204 332.503 737.622C332.791 736.203 333.184 734.808 333.68 733.448C334.712 730.628 335.932 727.88 337.334 725.224C339.828 720.491 343.102 716.212 347.018 712.566C347.966 711.671 348.96 710.838 349.984 710.043C350.282 709.791 351.077 709.394 350.404 709.34Z" fill="#10AAFF"/>
<path opacity="0.2" d="M350.404 709.34C349.833 709.426 349.282 709.612 348.776 709.89C348.23 710.117 347.698 710.372 347.179 710.655C346.187 711.187 345.244 711.803 344.358 712.497C340.009 715.868 337.479 720.852 335.384 725.828C333.756 729.68 331.853 735.329 331.738 739.915H332.22C332.22 739.64 332.22 739.426 332.22 739.388C332.276 738.794 332.37 738.204 332.503 737.622C332.791 736.203 333.184 734.808 333.68 733.448C334.712 730.628 335.932 727.88 337.334 725.224C339.828 720.491 343.102 716.212 347.018 712.566C347.966 711.671 348.96 710.838 349.984 710.043C350.282 709.791 351.077 709.394 350.404 709.34Z" fill="white"/>
<path d="M350.52 722.807C350.237 722.425 348.525 722.616 348.127 722.655C347.405 722.729 346.693 722.879 346.002 723.105C342.18 724.321 339.283 727.363 336.83 730.444C334.615 733.26 332.96 736.475 331.953 739.914H332.503C332.599 739.495 332.716 739.082 332.855 738.676C333.285 737.709 333.796 736.781 334.384 735.901C335.569 734.115 336.929 732.451 338.443 730.933C341.127 728.254 344.201 725.996 347.562 724.237C348.272 723.862 349.008 723.538 349.763 723.266C350 723.19 350.741 723.098 350.52 722.807Z" fill="#10AAFF"/>
<path opacity="0.2" d="M350.52 722.807C350.237 722.425 348.525 722.616 348.127 722.655C347.405 722.729 346.693 722.879 346.002 723.105C342.18 724.321 339.283 727.363 336.83 730.444C334.615 733.26 332.96 736.475 331.953 739.914H332.503C332.599 739.495 332.716 739.082 332.855 738.676C333.285 737.709 333.796 736.781 334.384 735.901C335.569 734.115 336.929 732.451 338.443 730.933C341.127 728.254 344.201 725.996 347.562 724.237C348.272 723.862 349.008 723.538 349.763 723.266C350 723.19 350.741 723.098 350.52 722.807Z" fill="black"/>
<path d="M308.808 719.414C308.808 719.414 316.903 715.431 323.27 700.014C328.521 687.318 326.954 679.827 324.149 678.711C320.228 677.167 301.501 703.293 308.808 719.414Z" fill="#10AAFF"/>
<path opacity="0.15" d="M308.808 719.414C308.808 719.414 316.903 715.431 323.27 700.014C328.521 687.318 326.954 679.827 324.149 678.711C320.228 677.167 301.501 703.293 308.808 719.414Z" fill="black"/>
<path d="M304.863 724.826C309.641 718.894 315.954 708.17 318.316 697.01" stroke="black" stroke-width="0.466269" stroke-linecap="round" stroke-linejoin="round"/>
<path d="M294.484 690.07C294.484 690.07 303.274 688.029 312.974 674.462C320.969 663.286 321.145 655.635 318.668 653.915C315.229 651.53 291.059 672.719 294.484 690.07Z" fill="#10AAFF"/>
<path opacity="0.15" d="M294.484 690.07C294.484 690.07 303.274 688.029 312.974 674.462C320.969 663.286 321.145 655.635 318.668 653.915C315.229 651.53 291.059 672.719 294.484 690.07Z" fill="black"/>
<path d="M291.992 699.028C292.199 688.464 301.761 680.561 309.412 671.212" stroke="black" stroke-width="0.466269" stroke-linecap="round" stroke-linejoin="round"/>
<path d="M282.053 688.703C282.053 688.703 273.033 688.619 260.605 677.497C250.37 668.324 248.535 660.895 250.576 658.678C253.389 655.575 281.587 671 282.053 688.703Z" fill="#10AAFF"/>
<path opacity="0.15" d="M282.053 688.703C282.053 688.703 273.033 688.619 260.605 677.497C250.37 668.324 248.535 660.895 250.576 658.678C253.389 655.575 281.587 671 282.053 688.703Z" fill="black"/>
<path d="M289.743 693.862C289.743 693.862 278.14 687.938 267.684 673.468" stroke="black" stroke-width="0.466269" stroke-linecap="round" stroke-linejoin="round"/>
<path d="M292.388 709.623C292.388 709.623 285.012 714.813 268.433 713.017C254.766 711.534 248.949 706.565 249.324 703.569C249.82 699.403 281.725 695.512 292.388 709.623Z" fill="#10AAFF"/>
<path opacity="0.15" d="M292.388 709.623C292.388 709.623 285.012 714.813 268.433 713.017C254.766 711.534 248.949 706.565 249.324 703.569C249.82 699.403 281.725 695.512 292.388 709.623Z" fill="black"/>
<path d="M300.736 715.318C294.032 709.165 287.283 706.566 271.865 705.626" stroke="black" stroke-width="0.466269" stroke-linecap="round" stroke-linejoin="round"/>
<path d="M285.18 667.117C285.18 667.117 279.509 660.1 280.197 643.421C280.762 629.662 285.326 623.547 288.345 623.716C292.518 623.96 298.549 655.536 285.18 667.117Z" fill="#10AAFF"/>
<path opacity="0.15" d="M285.18 667.117C285.18 667.117 279.509 660.1 280.197 643.421C280.762 629.662 285.326 623.547 288.345 623.716C292.518 623.96 298.549 655.536 285.18 667.117Z" fill="black"/>
<path d="M304.863 733.517C305.746 729.22 305.266 724.754 303.487 720.744C298.312 709.561 288.964 697.492 286.762 683.19C285.937 677.786 283.262 663.653 287.802 646.37" stroke="black" stroke-width="0.466269" stroke-linecap="round" stroke-linejoin="round"/>
<path d="M346.262 741.444C346.262 741.444 346.338 740.947 340.414 732.883C334.49 724.819 309.228 726.951 306.843 727.28C304.458 727.609 301.492 741.444 301.492 741.444H346.262Z" fill="#3D4E62"/>
<path d="M319.257 314.655C319.257 314.655 328.147 315.87 369.026 315.022C380.078 321.733 427.997 317.468 446.885 315.687C468.723 319.738 479.516 309.159 469.816 303.457C466.827 301.691 461.882 300.399 454.712 300.124C455.178 277.392 398.958 269.939 383.296 303.105C375.003 296.394 357.713 296.99 356.543 306.086C340.545 303.159 327.91 306.468 322.146 309.908C319.127 311.75 317.981 313.623 319.257 314.655Z" fill="#1F2A37"/>
<path opacity="0.08" d="M319.257 314.655C319.257 314.655 328.146 315.87 369.025 315.022C380.078 321.733 427.997 317.468 446.884 315.687C468.723 319.738 479.515 309.159 469.816 303.457C469.888 304.88 469.403 306.277 468.463 307.348C466.246 309.878 462.08 310.925 458.266 310.611C454.452 310.298 450.981 308.808 447.763 307.065C446.235 306.239 444.706 305.33 442.856 305.154C439.615 304.84 436.825 306.881 434.547 308.769C432.675 305.712 427.92 304.099 423.922 305.1C419.925 306.102 417.15 309.633 417.731 312.996C409.911 311.598 401.939 315.335 393.967 314.739C384.871 314.059 376.676 307.821 367.764 309.388C365.471 309.794 363.415 310.673 361.152 311.055C358.902 311.32 356.633 311.379 354.372 311.231C347.095 311.101 339.811 312.033 332.541 311.666C329.025 311.516 325.541 310.929 322.169 309.916C319.127 311.75 317.98 313.623 319.257 314.655Z" fill="#21252B"/>
<path d="M942.474 331.602C942.474 331.602 935.389 332.573 902.842 331.9C894.044 337.251 855.886 333.849 840.843 332.427C823.454 335.653 814.854 327.23 822.575 322.682C824.959 321.275 828.896 320.243 834.606 320.029C834.231 301.929 879.001 295.99 891.475 322.399C898.072 317.048 911.846 317.545 912.755 324.784C925.49 322.445 935.549 325.082 940.151 327.841C942.581 329.294 943.491 330.784 942.474 331.602Z" fill="#1F2A37"/>
<path opacity="0.08" d="M942.474 331.601C942.474 331.601 935.389 332.572 902.842 331.899C894.044 337.25 855.886 333.848 840.843 332.427C823.454 335.652 814.854 327.229 822.575 322.681C822.521 323.814 822.903 324.923 823.652 325.777C825.418 327.794 828.735 328.635 831.778 328.375C834.743 328.026 837.61 327.068 840.186 325.562C841.371 324.793 842.701 324.272 844.092 324.034C846.668 323.782 848.892 325.41 850.703 326.915C852.232 324.5 855.978 323.193 859.165 323.988C862.353 324.783 864.516 327.603 864.095 330.279C870.325 329.163 876.677 332.144 883.014 331.67C890.26 331.119 896.772 326.159 903.889 327.42C905.685 327.733 907.344 328.444 909.148 328.742C910.936 328.952 912.748 329.001 914.544 328.888C920.338 328.78 926.14 329.522 931.934 329.231C934.731 329.112 937.506 328.644 940.189 327.84C942.581 329.293 943.491 330.783 942.474 331.601Z" fill="#21252B"/>
<path d="M1021.88 743.37H225.965C225.799 743.398 225.629 743.388 225.467 743.343C225.304 743.298 225.153 743.218 225.025 743.109C224.897 743 224.794 742.864 224.723 742.711C224.652 742.558 224.615 742.392 224.615 742.224C224.615 742.055 224.652 741.889 224.723 741.736C224.794 741.583 224.897 741.447 225.025 741.338C225.153 741.229 225.304 741.149 225.467 741.104C225.629 741.059 225.799 741.05 225.965 741.077H1021.88C1022.05 741.05 1022.21 741.059 1022.38 741.104C1022.54 741.149 1022.69 741.229 1022.82 741.338C1022.95 741.447 1023.05 741.583 1023.12 741.736C1023.19 741.889 1023.23 742.055 1023.23 742.224C1023.23 742.392 1023.19 742.558 1023.12 742.711C1023.05 742.864 1022.95 743 1022.82 743.109C1022.69 743.218 1022.54 743.298 1022.38 743.343C1022.21 743.388 1022.05 743.398 1021.88 743.37Z" fill="#4B6C94"/>
<path d="M494.298 362L483.261 356.198C483.433 351.129 481.697 346.179 478.398 342.325C475.099 338.471 470.476 335.994 465.44 335.382C460.404 334.77 455.322 336.067 451.196 339.019C447.07 341.97 444.2 346.361 443.152 351.324C442.104 356.287 442.955 361.463 445.536 365.831C448.117 370.198 452.241 373.438 457.094 374.914C461.947 376.39 467.178 375.993 471.753 373.802C476.328 371.611 479.916 367.784 481.808 363.077L494.298 362Z" fill="white"/>
<path d="M463.036 376.194C460.16 376.17 457.322 375.544 454.703 374.359C452.084 373.174 449.741 371.454 447.825 369.311C445.909 367.167 444.462 364.647 443.577 361.911C442.692 359.176 442.388 356.286 442.684 353.426C442.982 350.566 443.872 347.801 445.301 345.305C446.729 342.81 448.662 340.641 450.978 338.936C453.293 337.232 455.939 336.03 458.746 335.408C461.553 334.786 464.459 334.757 467.277 335.323C471.984 336.316 476.196 338.922 479.186 342.69C482.175 346.458 483.754 351.152 483.65 355.961L495.628 362.267L482.076 363.452C480.521 367.223 477.881 370.447 474.491 372.715C471.101 374.984 467.115 376.195 463.036 376.194ZM463.036 335.636C459.43 335.642 455.894 336.628 452.806 338.489C449.719 340.35 447.195 343.016 445.506 346.202C443.818 349.388 443.028 352.972 443.22 356.572C443.413 360.172 444.581 363.652 446.6 366.639C448.619 369.627 451.413 372.008 454.681 373.529C457.95 375.05 461.571 375.653 465.156 375.274C468.742 374.895 472.156 373.547 475.034 371.376C477.913 369.205 480.146 366.291 481.495 362.948L481.58 362.734L493.006 361.732L482.91 356.42V356.198C483.064 351.53 481.57 346.957 478.689 343.281C475.809 339.605 471.725 337.06 467.155 336.095C465.79 335.795 464.396 335.64 462.997 335.636H463.036Z" fill="#B2B6BB"/>
<path d="M460.154 360.785L460.1 359.661C460.037 358.776 460.211 357.89 460.605 357.093C461.156 356.155 461.892 355.339 462.768 354.693C463.531 354.141 464.21 353.482 464.786 352.736C465.097 352.255 465.247 351.688 465.214 351.116C465.219 350.827 465.151 350.541 465.018 350.285C464.885 350.029 464.689 349.809 464.45 349.648C463.822 349.297 463.1 349.151 462.386 349.228C460.564 349.397 458.807 349.991 457.257 350.963L455.445 347.722C457.549 346.391 459.96 345.625 462.447 345.498C464.226 345.318 466.013 345.764 467.499 346.759C468.12 347.209 468.628 347.798 468.98 348.479C469.333 349.16 469.523 349.913 469.533 350.68C469.609 351.695 469.394 352.71 468.914 353.608C468.181 354.727 467.247 355.701 466.162 356.482C465.495 356.972 464.901 357.553 464.396 358.209C464.137 358.661 464.025 359.181 464.075 359.7L464.121 360.617L460.154 360.785ZM459.917 366.006C459.876 365.655 459.908 365.3 460.01 364.962C460.113 364.623 460.284 364.31 460.513 364.041C461.039 363.539 461.742 363.265 462.47 363.277C463.182 363.201 463.895 363.406 464.457 363.85C464.933 364.364 465.212 365.03 465.244 365.729C465.276 366.429 465.06 367.117 464.633 367.672C464.381 367.922 464.081 368.118 463.751 368.249C463.422 368.381 463.069 368.444 462.714 368.437C461.996 368.514 461.277 368.306 460.712 367.856C460.45 367.619 460.242 367.332 460.099 367.011C459.955 366.69 459.88 366.342 459.879 365.991L459.917 366.006Z" fill="#10AAFF"/>
</svg>
